<svg width="368" height="371" viewBox="0 0 368 371" fill="none" xmlns="http://www.w3.org/2000/svg">
<path d="M350.169 87.3976H332.453V161.102H350.169V87.3976Z" fill="white"/>
<path d="M326.907 90.5071H355.705L341.311 73.5941L326.907 90.5071Z" fill="white"/>
<path d="M35.3268 42.7392H17.6111V72.6899H35.3268V42.7392Z" fill="white"/>
<path d="M12.0657 45.8487H40.8722L26.4689 28.9357L12.0657 45.8487Z" fill="white"/>
<path d="M320.67 59.1263H302.954V89.0769H320.67V59.1263Z" fill="white"/>
<path d="M297.409 62.2357H326.215L311.812 45.3228L297.409 62.2357Z" fill="white"/>
<path d="M34.035 219.98L21.9292 220.238L15.7841 220.339C13.7265 220.386 11.6689 220.376 9.61125 220.395H9.20526V219.98L9.1499 209.655V209.193H9.61125L21.8277 209.258C25.8968 209.258 29.9751 209.359 34.0442 209.406H34.3026V209.655C34.2841 211.408 34.2195 213.152 34.1826 214.868L34.0534 219.98H34.035ZM34.035 219.98L33.9058 214.766C33.8597 213.05 33.8043 211.352 33.7858 209.655L34.035 209.904C29.9659 209.95 25.8876 210.051 21.8185 210.051L9.60202 210.107L10.0634 209.645L10.0172 219.97L9.60202 219.555C11.6135 219.574 13.625 219.555 15.6457 219.611L21.717 219.712L34.0442 219.97L34.035 219.98Z" fill="#EBEBEB"/>
<path d="M20.4068 232.999L8.30105 233.257L2.1559 233.359C0.0982938 233.405 -1.95932 233.396 -4.01692 233.405H-4.42291V232.99L-4.47827 222.665V222.203H-4.01692L8.19955 222.268C12.2686 222.268 16.3469 222.369 20.416 222.416H20.6744V222.665C20.6559 224.418 20.5913 226.162 20.5544 227.878L20.4253 232.99L20.4068 232.999ZM20.4068 232.999L20.2776 227.786C20.2315 226.069 20.1761 224.372 20.1577 222.674L20.4068 222.923C16.3377 222.969 12.2594 223.071 8.19032 223.071L-4.02615 223.126L-3.5648 222.665L-3.61094 232.99L-4.02615 232.574C-2.01468 232.593 -0.00320244 232.574 2.0175 232.621L8.08883 232.722L20.416 232.98L20.4068 232.999Z" fill="#EBEBEB"/>
<path d="M371.806 232.999L359.7 233.257L353.555 233.359C351.497 233.405 349.44 233.396 347.382 233.405H346.976V232.99L346.921 222.665V222.203H347.382L359.598 222.268C363.668 222.268 367.746 222.369 371.815 222.416H372.073V222.665C372.055 224.418 371.99 226.162 371.953 227.878L371.824 232.99L371.806 232.999ZM371.806 232.999L371.677 227.786C371.63 226.069 371.575 224.372 371.557 222.674L371.806 222.923C367.737 222.969 363.658 223.071 359.589 223.071L347.373 223.126L347.834 222.665L347.788 232.99L347.373 232.574C349.384 232.593 351.396 232.574 353.416 232.621L359.488 232.722L371.815 232.98L371.806 232.999Z" fill="#EBEBEB"/>
<path d="M358.168 10.7863L346.063 11.0447L339.917 11.1461C337.86 11.1923 335.802 11.1831 333.745 11.2015H333.339V10.7863L333.283 0.461347V0H333.745L345.961 0.0645886C350.03 0.0645886 354.108 0.166085 358.178 0.21222H358.436V0.461347C358.417 2.21447 358.353 3.95836 358.316 5.67457L358.187 10.7863H358.168ZM358.168 10.7863L358.039 5.57307C357.993 3.85686 357.938 2.15911 357.919 0.461347L358.168 0.710475C354.099 0.756609 350.021 0.858106 345.952 0.858106L333.735 0.913468L334.197 0.45212L334.151 10.7771L333.735 10.3619C335.747 10.3803 337.758 10.3619 339.779 10.408L345.85 10.5095L358.178 10.7678L358.168 10.7863Z" fill="#EBEBEB"/>
<path d="M371.806 23.8055L359.7 24.0638L353.555 24.1653C351.497 24.2115 349.44 24.2023 347.382 24.2207H346.976V23.8055L346.921 13.4805V13.0192H347.382L359.598 13.0838C363.668 13.0838 367.746 13.1853 371.815 13.2314H372.073V13.4805C372.055 15.2337 371.99 16.9776 371.953 18.6938L371.824 23.8055H371.806ZM371.806 23.8055L371.677 18.5923C371.63 16.8761 371.575 15.1783 371.557 13.4805L371.806 13.7297C367.737 13.7758 363.658 13.8773 359.589 13.8773L347.373 13.9327L347.834 13.4713L347.788 23.7963L347.373 23.3811C349.384 23.3995 351.396 23.3811 353.416 23.4364L359.488 23.5379L371.815 23.7963L371.806 23.8055Z" fill="#EBEBEB"/>
<path d="M211.303 273.21L199.197 273.468L193.052 273.57C190.995 273.616 188.937 273.607 186.879 273.625H186.473V273.21L186.418 262.885V262.424H186.879L199.096 262.488C203.165 262.488 207.243 262.59 211.312 262.636H211.571V262.885C211.552 264.638 211.488 266.382 211.451 268.098L211.321 273.21H211.303ZM211.303 273.21L211.174 267.997C211.128 266.28 211.072 264.583 211.054 262.885L211.303 263.134C207.234 263.18 203.156 263.282 199.087 263.282L186.87 263.337L187.331 262.876L187.285 273.201L186.87 272.785C188.882 272.804 190.893 272.785 192.914 272.841L198.985 272.942L211.312 273.201L211.303 273.21Z" fill="#5A5FD6"/>
<path d="M225.273 286.229L213.167 286.487L207.022 286.589C204.964 286.635 202.907 286.626 200.849 286.635H200.443V286.22L200.388 275.895V275.434H200.849L213.066 275.498C217.135 275.498 221.213 275.6 225.282 275.646H225.54V275.895C225.522 277.648 225.457 279.392 225.42 281.108L225.291 286.22L225.273 286.229ZM225.273 286.229L225.144 281.016C225.097 279.3 225.042 277.602 225.024 275.904L225.273 276.153C221.204 276.199 217.125 276.301 213.056 276.301L200.84 276.356L201.301 275.895L201.255 286.22L200.84 285.805C202.851 285.823 204.863 285.805 206.883 285.86L212.955 285.961L225.282 286.22L225.273 286.229Z" fill="#5A5FD6"/>
<path d="M197.546 286.229L185.44 286.487L179.295 286.589C177.237 286.635 175.18 286.626 173.122 286.635H172.716V286.22L172.661 275.895V275.434H173.122L185.338 275.498C189.408 275.498 193.486 275.6 197.555 275.646H197.813V275.895C197.795 277.648 197.73 279.392 197.693 281.108L197.564 286.22L197.546 286.229ZM197.546 286.229L197.417 281.016C197.37 279.3 197.315 277.602 197.297 275.904L197.546 276.153C193.477 276.199 189.398 276.301 185.329 276.301L173.113 276.356L173.574 275.895L173.528 286.22L173.113 285.805C175.124 285.823 177.136 285.805 179.156 285.86L185.228 285.961L197.555 286.22L197.546 286.229Z" fill="#5A5FD6"/>
<path d="M34.035 10.7863L21.9292 11.0447L15.7841 11.1461C13.7265 11.1923 11.6689 11.1831 9.61125 11.2015H9.20526V10.7863L9.1499 0.461347V0H9.61125L21.8277 0.0645886C25.8968 0.0645886 29.9751 0.166085 34.0442 0.21222H34.3026V0.461347C34.2841 2.21447 34.2195 3.95836 34.1826 5.67457L34.0534 10.7863H34.035ZM34.035 10.7863L33.9058 5.57307C33.8597 3.85686 33.8043 2.15911 33.7858 0.461347L34.035 0.710475C29.9659 0.756609 25.8876 0.858106 21.8185 0.858106L9.60202 0.913468L10.0634 0.45212L10.0172 10.7771L9.60202 10.3619C11.6135 10.3803 13.625 10.3619 15.6457 10.408L21.717 10.5095L34.0442 10.7678L34.035 10.7863Z" fill="#EBEBEB"/>
<path d="M328.845 247.273H232.857V380.113H328.845V247.273Z" fill="#9BCBFF"/>
<path d="M333.495 242.337H228.207V247.264H333.495V242.337Z" fill="#78B9FF"/>
<path d="M366.611 242.337H333.495V247.264H366.611V242.337Z" fill="#EBEBEB"/>
<path d="M361.37 247.273H328.845V380.113H361.37V247.273Z" fill="#DBDBDB"/>
<path d="M318.391 266.299H243.311V308.632H318.391V266.299Z" fill="#78B9FF" stroke="#9BCBFF" stroke-width="0.25" stroke-miterlimit="10"/>
<path d="M284.999 278.626H270.337V287.05H284.999V278.626Z" fill="#78B9FF"/>
<path d="M289.335 279.263H274.674V286.423H289.335V279.263Z" fill="#78B9FF" stroke="#9BCBFF" stroke-width="0.25" stroke-miterlimit="10"/>
<path d="M318.391 319.778H243.311V362.111H318.391V319.778Z" fill="#78B9FF" stroke="#9BCBFF" stroke-width="0.25" stroke-miterlimit="10"/>
<path d="M284.999 332.105H270.337V340.53H284.999V332.105Z" fill="#78B9FF"/>
<path d="M289.335 332.742H274.674V339.902H289.335V332.742Z" fill="#78B9FF" stroke="#9BCBFF" stroke-width="0.25" stroke-miterlimit="10"/>
<path d="M309.45 9.85437H58.3203V190.749H309.45V9.85437Z" fill="#C8D0FF" stroke="#C8D0FF" stroke-width="0.5" stroke-miterlimit="10"/>
<path d="M309.45 9.85437H58.3203V18.1217H309.45V9.85437Z" fill="#37474F"/>
<path d="M64.89 13.988C64.89 15.123 63.9765 16.0364 62.8416 16.0364C61.7067 16.0364 60.7932 15.123 60.7932 13.988C60.7932 12.8531 61.7067 11.9397 62.8416 11.9397C63.9765 11.9397 64.89 12.8531 64.89 13.988Z" fill="#C7C7C7"/>
<path d="M73.2589 13.988C73.2589 15.123 72.3454 16.0364 71.2105 16.0364C70.0756 16.0364 69.1621 15.123 69.1621 13.988C69.1621 12.8531 70.0756 11.9397 71.2105 11.9397C72.3454 11.9397 73.2589 12.8531 73.2589 13.988Z" fill="white"/>
<path d="M81.6278 13.988C81.6278 15.123 80.7143 16.0364 79.5794 16.0364C78.4445 16.0364 77.531 15.123 77.531 13.988C77.531 12.8531 78.4445 11.9397 79.5794 11.9397C80.7143 11.9397 81.6278 12.8531 81.6278 13.988Z" fill="#FFC727"/>
<path d="M350.612 157.652H265.677V219.223H350.612V157.652Z" fill="#5E64CA"/>
<path d="M295.684 151.276H265.677V157.652H297.409L295.684 151.276Z" fill="#5E64CA"/>
<path d="M293.174 153.204H268.63V156.913H293.174V153.204Z" fill="white"/>
<path d="M340.933 179.232L353.887 130.098L304.754 117.144L291.799 166.278L340.933 179.232Z" fill="#455A64"/>
<path d="M314.829 160.124C314.156 162.477 311.711 163.834 309.358 163.16C307.005 162.486 305.649 160.041 306.322 157.688C306.996 155.336 309.441 153.979 311.794 154.653C314.147 155.326 315.503 157.772 314.829 160.124Z" fill="white"/>
<path d="M320.941 138.695L317.694 137.767L311.583 159.148L314.83 160.076L320.941 138.695Z" fill="white"/>
<path d="M330.368 157.864C329.694 160.217 327.249 161.573 324.896 160.899C322.543 160.226 321.187 157.781 321.86 155.428C322.534 153.075 324.979 151.719 327.332 152.392C329.685 153.066 331.041 155.511 330.368 157.864Z" fill="white"/>
<path d="M336.502 136.412L333.255 135.485L327.148 156.867L330.395 157.794L336.502 136.412Z" fill="white"/>
<path d="M336.476 136.485L316.887 140.619L317.708 137.758L337.297 133.625L336.476 136.485Z" fill="white"/>
<path d="M334.944 141.873L315.346 146.007L316.167 143.147L335.756 139.013L334.944 141.873Z" fill="white"/>
<path d="M350.39 219.223H265.456L258.905 162.763H343.839L350.39 219.223Z" fill="#7073CF"/>
<path d="M288.237 156.913H258.222L258.905 162.763H290.636L288.237 156.913Z" fill="#7073CF"/>
<path d="M272.93 93.3767L226.666 107.697L208.286 48.3123L242.629 37.6736L258.047 45.3043L272.93 93.3767Z" fill="white"/>
<path d="M242.629 37.6736L258.047 45.3043L246.135 48.9951L242.629 37.6736Z" fill="#EBEBEB"/>
<path d="M216.361 58.3824L242.081 50.4207L241.609 48.8958L215.889 56.8575L216.361 58.3824Z" fill="#DBDBDB"/>
<path d="M217.547 62.2401L243.267 54.2784L242.795 52.7535L217.075 60.7152L217.547 62.2401Z" fill="#DBDBDB"/>
<path d="M218.732 66.0858L244.452 58.1241L243.98 56.5992L218.26 64.5609L218.732 66.0858Z" fill="#DBDBDB"/>
<path d="M219.922 69.9293L257.612 58.2623L257.14 56.7375L219.45 68.4044L219.922 69.9293Z" fill="#DBDBDB"/>
<path d="M221.117 73.7843L258.807 62.1173L258.335 60.5924L220.645 72.2594L221.117 73.7843Z" fill="#DBDBDB"/>
<path d="M222.302 77.63L259.992 65.963L259.52 64.4382L221.83 76.1052L222.302 77.63Z" fill="#DBDBDB"/>
<path d="M223.497 81.4758L261.187 69.8088L260.715 68.2839L223.025 79.9509L223.497 81.4758Z" fill="#DBDBDB"/>
<path d="M224.691 85.3308L262.381 73.6638L261.909 72.1389L224.219 83.8059L224.691 85.3308Z" fill="#DBDBDB"/>
<path d="M225.886 89.1765L263.576 77.5095L263.104 75.9847L225.414 87.6516L225.886 89.1765Z" fill="#DBDBDB"/>
<path d="M227.072 93.0342L264.761 81.3672L264.289 79.8423L226.599 91.5093L227.072 93.0342Z" fill="#DBDBDB"/>
<path d="M228.263 96.8712L265.953 85.2042L265.481 83.6793L227.791 95.3463L228.263 96.8712Z" fill="#DBDBDB"/>
<path d="M229.458 100.726L267.148 89.0591L266.676 87.5343L228.986 99.2012L229.458 100.726Z" fill="#DBDBDB"/>
<path d="M327.469 120.553L318.171 77.4769L267.393 88.437L276.691 131.513L327.469 120.553Z" fill="#FFC727"/>
<path d="M295.97 114.682L324.832 108.454L306.562 93.7827L295.97 114.682Z" fill="#FFC727"/>
<g opacity="0.3">
<path d="M295.97 114.682L324.832 108.454L306.562 93.7827L295.97 114.682Z" fill="white"/>
</g>
<path d="M281.76 117.764L307.356 112.237L292.057 103.416L281.76 117.764Z" fill="#FFC727"/>
<g opacity="0.5">
<path d="M281.76 117.764L307.356 112.237L292.057 103.416L281.76 117.764Z" fill="white"/>
</g>
<path d="M324.833 108.432L274.054 119.392L276.667 131.496L327.445 120.535L324.833 108.432Z" fill="#FFC727"/>
<g opacity="0.5">
<path d="M324.833 108.432L274.054 119.392L276.667 131.496L327.445 120.535L324.833 108.432Z" fill="white"/>
</g>
<path opacity="0.9" d="M280.182 104.265C283.052 104.191 284.906 101.312 283.79 98.673C283.163 97.1967 281.659 96.2278 280.053 96.2648C277.183 96.3386 275.329 99.2174 276.445 101.856C277.073 103.333 278.577 104.301 280.182 104.265Z" fill="white"/>
<path d="M127.32 100.528C127.32 108.214 133.262 114.497 140.809 115.06V115.097H223.335C232.793 115.097 240.46 107.429 240.46 97.9717C240.46 89.0492 233.642 81.7138 224.931 80.9203C224.442 65.419 211.718 52.9996 196.097 52.9996C183.659 52.9996 173.057 60.8702 169.007 71.8964C166.7 70.7338 164.107 70.0879 161.349 70.0879C152.242 70.0879 144.795 77.1834 144.251 86.152C143.485 86.0228 142.692 85.9582 141.88 85.9582C133.834 85.9582 127.31 92.4817 127.31 100.528H127.32Z" fill="#5A5FD6"/>
<path d="M192.748 93.8934H175.032V115.097H192.748V93.8934Z" fill="white"/>
<path d="M169.487 97.0029H198.293L183.89 80.0899L169.487 97.0029Z" fill="white"/>
<path d="M232.009 136.808H135.771V143.894H232.009V136.808Z" fill="white"/>
<path d="M139.315 137.712H136.667V142.99H139.315V137.712Z" fill="#5A5FD6"/>
<path d="M142.692 137.712H140.043V142.99H142.692V137.712Z" fill="#5A5FD6"/>
<path d="M146.069 137.712H143.421V142.99H146.069V137.712Z" fill="#5A5FD6"/>
<path d="M149.436 137.712H146.788V142.99H149.436V137.712Z" fill="#5A5FD6"/>
<path d="M152.814 137.712H150.166V142.99H152.814V137.712Z" fill="#5A5FD6"/>
<path d="M156.191 137.712H153.542V142.99H156.191V137.712Z" fill="#5A5FD6"/>
<path d="M159.568 137.712H156.92V142.99H159.568V137.712Z" fill="#5A5FD6"/>
<path d="M162.945 137.712H160.297V142.99H162.945V137.712Z" fill="#5A5FD6"/>
<path d="M166.313 137.712H163.665V142.99H166.313V137.712Z" fill="#5A5FD6"/>
<path d="M169.69 137.712H167.042V142.99H169.69V137.712Z" fill="#5A5FD6"/>
<path d="M173.067 137.712H170.419V142.99H173.067V137.712Z" fill="#5A5FD6"/>
<path d="M176.444 137.712H173.796V142.99H176.444V137.712Z" fill="#5A5FD6"/>
<path d="M179.821 137.712H177.173V142.99H179.821V137.712Z" fill="#5A5FD6"/>
<path d="M183.189 137.712H180.541V142.99H183.189V137.712Z" fill="#5A5FD6"/>
<path d="M186.566 137.712H183.918V142.99H186.566V137.712Z" fill="#5A5FD6"/>
<path d="M172.126 131.918C171.194 131.918 170.456 131.161 170.456 130.248V128.19C170.456 128.015 170.594 127.876 170.769 127.876C170.945 127.876 171.092 128.015 171.092 128.19V130.248C171.092 130.81 171.554 131.281 172.126 131.281C172.698 131.281 173.159 130.82 173.159 130.248V128.19C173.159 128.015 173.307 127.876 173.482 127.876C173.657 127.876 173.796 128.015 173.796 128.19V130.248C173.796 131.17 173.048 131.918 172.126 131.918Z" fill="#263238"/>
<path d="M176.518 130.34H175.807V131.595C175.807 131.77 175.66 131.908 175.484 131.908C175.309 131.908 175.161 131.761 175.161 131.595V128.181C175.161 128.005 175.309 127.867 175.484 127.867H176.518C177.21 127.867 177.763 128.421 177.763 129.113C177.763 129.805 177.21 130.349 176.518 130.349V130.34ZM175.807 129.694H176.518C176.85 129.694 177.117 129.426 177.117 129.103C177.117 128.771 176.85 128.504 176.518 128.504H175.807V129.694Z" fill="#263238"/>
<path d="M178.538 131.604V128.19C178.538 128.015 178.677 127.876 178.861 127.876C179.046 127.876 179.184 128.024 179.184 128.19V131.281H180.753C180.919 131.281 181.067 131.429 181.067 131.604C181.067 131.779 180.919 131.918 180.753 131.918H178.861C178.686 131.918 178.538 131.77 178.538 131.604Z" fill="#263238"/>
<path d="M184.757 128.375C185.117 128.753 185.339 129.27 185.339 129.842C185.339 130.414 185.117 130.93 184.757 131.309C184.416 131.687 183.909 131.927 183.373 131.927C182.838 131.927 182.312 131.687 181.952 131.309C181.593 130.93 181.38 130.414 181.38 129.842C181.38 129.27 181.593 128.762 181.952 128.375C182.303 127.996 182.811 127.756 183.373 127.756C183.936 127.756 184.416 127.996 184.757 128.375ZM184.684 129.842C184.684 129.445 184.527 129.085 184.287 128.827C184.047 128.568 183.724 128.411 183.373 128.411C183.004 128.411 182.681 128.559 182.432 128.827C182.192 129.085 182.035 129.445 182.035 129.842C182.035 130.238 182.183 130.598 182.432 130.847C182.672 131.106 182.995 131.263 183.373 131.263C183.724 131.263 184.047 131.106 184.287 130.847C184.527 130.598 184.684 130.238 184.684 129.842Z" fill="#263238"/>
<path d="M188.319 130.967H186.916L186.63 131.724C186.575 131.853 186.455 131.927 186.326 131.927C186.289 131.927 186.252 131.927 186.215 131.908C186.049 131.844 185.966 131.659 186.021 131.493L187.304 128.088C187.359 127.959 187.479 127.876 187.609 127.885C187.738 127.885 187.867 127.959 187.913 128.088L189.196 131.493C189.251 131.659 189.168 131.844 189.002 131.908C188.974 131.918 188.937 131.927 188.891 131.927C188.762 131.927 188.642 131.853 188.596 131.724L188.31 130.967H188.319ZM188.079 130.331L187.609 129.085L187.138 130.331H188.079Z" fill="#263238"/>
<path d="M189.989 131.604V128.19C189.989 128.015 190.127 127.876 190.312 127.876H190.995C192.111 127.876 193.015 128.78 193.015 129.897C193.015 131.013 192.111 131.927 190.995 131.927H190.312C190.137 131.927 189.989 131.779 189.989 131.613V131.604ZM190.635 131.281H190.995C191.761 131.281 192.37 130.663 192.37 129.888C192.37 129.113 191.761 128.513 190.995 128.513H190.635V131.281Z" fill="#263238"/>
<path d="M194.224 131.096C194.464 131.096 194.658 131.29 194.658 131.53C194.658 131.77 194.464 131.955 194.224 131.955C193.984 131.955 193.8 131.761 193.8 131.53C193.8 131.299 193.994 131.096 194.224 131.096Z" fill="#263238"/>
<path d="M195.553 131.096C195.793 131.096 195.987 131.29 195.987 131.53C195.987 131.77 195.793 131.955 195.553 131.955C195.313 131.955 195.128 131.761 195.128 131.53C195.128 131.299 195.322 131.096 195.553 131.096Z" fill="#263238"/>
<path d="M196.891 131.096C197.131 131.096 197.324 131.29 197.324 131.53C197.324 131.77 197.131 131.955 196.891 131.955C196.651 131.955 196.466 131.761 196.466 131.53C196.466 131.299 196.66 131.096 196.891 131.096Z" fill="#263238"/>
<path d="M97.7932 259.499L100.368 274.954L117.825 380.104H120.639L107.943 274.954L106.07 259.499H97.7932Z" fill="#DBDBDB"/>
<path d="M106.07 259.499H97.7932L100.368 274.954H107.943L106.07 259.499Z" fill="#A6A6A6"/>
<path d="M42.9575 380.104H45.7717L63.2383 274.954L65.8127 259.499H57.5361L55.6538 274.954L42.9575 380.104Z" fill="#C8D0FF"/>
<path d="M57.5361 259.499L55.6538 274.954H63.2384L65.8127 259.499H57.5361Z" fill="#A8B4FF"/>
<path d="M-9.40552 380.104H-6.5913L10.8661 274.954L13.4404 259.499H5.16383L3.29076 274.954L-9.40552 380.104Z" fill="#DBDBDB"/>
<path d="M3.29077 274.954H10.8661L13.4404 259.499H5.16384L3.29077 274.954Z" fill="#A6A6A6"/>
<path d="M-4.9397 266.76H122.992V253.28H75.104L59.003 159.635H-0.0678697L-4.9397 266.76Z" fill="#C8D0FF"/>
<path d="M-4.9397 266.76H2.02665L6.57553 159.635H-0.0678697L-4.9397 266.76Z" fill="#A8B4FF"/>
<path d="M122.697 381.636C120.381 381.857 57.3701 366.78 55.3955 364.732C55.1556 364.501 56.4013 358.781 58.2282 350.965L58.2651 350.808C59.4092 345.854 77.8078 305.827 77.8078 305.827L118.646 317.259L100.054 354.407C100.054 354.407 107.74 359.962 114.319 365.239C114.319 365.249 114.337 365.249 114.337 365.258C118.406 368.496 121.913 371.412 122.651 372.353C124.579 374.817 125.022 381.433 122.706 381.636H122.697Z" fill="#FFA4A1"/>
<path d="M122.697 381.636C120.39 381.857 57.3793 366.78 55.3862 364.741C55.1463 364.51 56.392 358.79 58.2189 350.975L58.2558 350.827C58.671 348.982 61.5129 342.255 64.8808 334.541C71.598 336.359 95.6895 342.892 104.446 345.604L100.045 354.407C100.045 354.407 107.721 359.971 114.31 365.239C114.31 365.239 114.31 365.239 114.31 365.258C118.379 368.496 121.885 371.412 122.632 372.353C124.561 374.826 125.004 381.442 122.688 381.636H122.697Z" fill="white"/>
<path d="M122.909 381.94C120.529 382.143 57.4808 366.891 55.4417 364.796C54.6666 364.003 56.0691 354.056 59.5384 343.51L100.174 353.392C100.174 353.392 120.916 369.844 122.9 372.39C124.874 374.928 125.29 381.737 122.909 381.94Z" fill="#3DA6AD"/>
<path d="M122.614 379.2C112.104 376.386 69.4665 366.014 58.8648 364.031C58.7817 364.012 58.7633 364.077 58.8463 364.095C69.1989 367.112 111.92 377.133 122.568 379.366C122.789 379.412 122.835 379.255 122.604 379.19L122.614 379.2Z" fill="#263238"/>
<path d="M119.384 369.142C116.902 368.432 114.162 369.032 112.436 370.194C110.775 371.311 109.161 373.055 108.709 375.269C108.699 375.334 108.81 375.361 108.838 375.297C110.443 371.311 115.084 368.58 119.356 369.272C119.439 369.29 119.476 369.161 119.384 369.142Z" fill="#263238"/>
<path d="M103.228 355.247C99.0112 354.167 93.7426 354.472 90.2825 357.295C90.1441 357.406 90.3102 357.59 90.4486 357.563C94.7484 356.52 98.7436 355.929 103.182 355.791C103.496 355.782 103.532 355.33 103.237 355.256L103.228 355.247Z" fill="#263238"/>
<path d="M106.181 357.313C101.964 356.234 96.6953 356.538 93.2352 359.362C93.0968 359.473 93.2629 359.657 93.4013 359.629C97.701 358.587 101.696 357.996 106.134 357.858C106.448 357.849 106.485 357.396 106.19 357.323L106.181 357.313Z" fill="#263238"/>
<path d="M109.142 359.38C104.926 358.301 99.6569 358.605 96.1968 361.429C96.0584 361.539 96.2245 361.724 96.3629 361.696C100.663 360.654 104.658 360.063 109.096 359.925C109.41 359.915 109.447 359.463 109.151 359.389L109.142 359.38Z" fill="#263238"/>
<path d="M112.095 361.438C107.878 360.358 102.61 360.663 99.1495 363.486C99.0111 363.597 99.1772 363.782 99.3156 363.754C103.615 362.711 107.611 362.121 112.049 361.982C112.362 361.973 112.399 361.521 112.104 361.447L112.095 361.438Z" fill="#263238"/>
<path d="M63.9857 354.647C59.2338 353.512 57.4622 360.893 62.2233 362.028C66.9752 363.163 68.7468 355.782 63.9857 354.647Z" fill="#263238"/>
<path d="M110.526 345.069C108.81 342.772 105.701 343.861 103.929 345.383C101.069 347.856 98.5866 351.685 97.4701 355.274C97.4425 355.367 97.4978 355.413 97.5716 355.431C97.5901 355.754 97.8854 356.095 98.2452 355.957C101.761 354.601 105.691 353.586 108.681 351.196C110.434 349.803 112.141 347.247 110.517 345.078L110.526 345.069ZM103.163 352.801C101.447 353.512 99.7123 354.13 98.0238 354.905C99.2879 352.977 100.469 351.011 101.927 349.212C102.619 348.354 103.357 347.487 104.16 346.73C105.415 345.558 110.425 343.021 109.733 347.727C109.354 350.319 105.202 351.953 103.163 352.801Z" fill="#263238"/>
<path d="M86.5825 354.296C90.1256 355.754 94.1855 355.625 97.9409 355.939C98.3284 355.976 98.5222 355.56 98.4483 355.247C98.5129 355.219 98.5591 355.145 98.5037 355.071C96.4276 351.943 92.9675 348.963 89.5259 347.394C87.4037 346.426 84.1097 346.26 83.1039 348.945C82.1628 351.482 84.5157 353.447 86.5825 354.305V354.296ZM84.6079 351.27C82.6241 346.952 88.1418 347.976 89.6735 348.751C90.6608 349.249 91.602 349.877 92.5154 350.504C94.4162 351.823 96.1047 353.383 97.8578 354.868C96.0217 354.601 94.1855 354.49 92.3401 354.296C90.1441 354.056 85.7059 353.65 84.6079 351.27Z" fill="#263238"/>
<path d="M104.667 351.011L60.9131 337.891C60.9131 337.891 96.972 262.737 95.8371 258.917C95.0805 256.361 41.0106 256.186 25.1587 241.958C8.75315 227.232 21.5232 198.305 21.5232 198.305L66.9844 198.075C66.9844 198.075 66.2001 207.56 67.944 209.036C69.0882 210.024 131.241 215.486 143.144 238.341C153.948 259.083 104.658 351.02 104.658 351.02L104.667 351.011Z" fill="#263238"/>
<path d="M95.8372 258.908C96.031 259.554 95.1544 262.257 93.5581 266.29L126.231 306.436C137.884 279.872 148.837 249.247 143.153 238.332C131.25 215.477 69.0975 210.005 67.9441 209.027C66.2187 207.551 66.9938 198.056 66.9938 198.056L38.1411 198.204L86.0935 257.109C91.8696 257.745 95.6434 258.244 95.8372 258.908Z" fill="#263238"/>
<path d="M105.747 341.757C104.612 341.185 103.366 340.834 102.176 340.428C100.912 340.004 99.6478 339.57 98.3837 339.155C95.8832 338.352 93.3827 337.586 90.8545 336.867C85.7704 335.427 80.6864 334.025 75.5654 332.724C72.8988 332.05 67.1781 330.565 66.8275 330.62C66.6614 330.648 66.6153 330.934 66.7722 330.989C71.7178 332.761 76.7373 334.274 81.7567 335.805C86.7669 337.337 91.7956 338.841 96.8705 340.124C98.2822 340.483 99.6939 340.797 101.106 341.129C102.582 341.48 104.077 341.96 105.599 342.089C105.747 342.098 105.885 341.821 105.728 341.738L105.747 341.757Z" fill="#455A64"/>
<path d="M23.9777 206.96C24.1161 205.447 24.2914 203.925 24.4575 202.411C24.4759 202.236 24.7527 202.236 24.7343 202.411C24.1253 208.557 23.5071 214.849 24.6328 220.976C25.6939 226.706 28.4989 231.725 32.7525 235.693C41.7672 244.108 54.3805 246.581 66.1356 248.583C72.862 249.727 79.6346 250.613 86.4256 251.277C89.7566 251.6 93.0875 251.868 96.4276 252.08C99.7309 252.283 103.053 252.32 106.356 252.505C107.398 252.56 108.33 253.04 108.174 254.23C108.072 254.95 107.666 255.66 107.38 256.315C107.029 257.118 106.67 257.921 106.319 258.724C104.99 261.722 103.662 264.721 102.314 267.72C99.5464 273.893 96.7414 280.047 93.8902 286.183C88.2433 298.372 82.375 310.459 76.3129 322.436C75.5563 323.921 74.8089 325.407 74.0431 326.892C73.9969 326.994 73.8493 326.892 73.8954 326.809C79.69 314.676 85.4291 302.505 91.0852 290.298C93.8902 284.236 96.6952 278.183 99.4725 272.112C100.857 269.076 102.241 266.04 103.606 262.996C104.289 261.473 104.972 259.951 105.655 258.428C105.996 257.662 106.337 256.906 106.679 256.14C106.965 255.503 107.989 253.99 107.279 253.4C106.808 253.003 105.821 253.141 105.249 253.123C104.372 253.095 103.486 253.067 102.61 253.04C100.94 252.984 99.2695 252.92 97.5995 252.837C94.2132 252.671 90.8361 252.44 87.4683 252.145C80.8618 251.573 74.2738 250.733 67.7226 249.681C56.0413 247.799 43.345 245.686 33.9981 237.843C29.8737 234.383 26.635 229.935 25.0388 224.768C23.258 219.02 23.4241 212.884 23.9777 206.96Z" fill="#455A64"/>
<path d="M218.832 324.032C217.19 325.674 159.042 354.25 156.209 353.936C155.877 353.918 153.183 348.714 149.612 341.526L149.538 341.388C147.259 336.848 126.572 298.639 126.572 298.639L162.751 280.324L184.01 317.499C184.01 317.499 193.467 316.881 201.91 316.743C201.919 316.743 201.928 316.743 201.938 316.743C207.142 316.641 211.691 316.65 212.872 316.899C215.926 317.564 220.484 322.38 218.832 324.013V324.032Z" fill="#FFA4A1"/>
<path d="M218.832 324.032C217.19 325.674 159.042 354.25 156.209 353.936C155.877 353.918 153.182 348.714 149.612 341.535L149.538 341.397C149.381 341.083 149.215 340.76 149.049 340.437C148.938 340.207 148.818 339.976 148.689 339.745C148.514 339.404 148.329 339.063 148.145 338.721C146.567 335.732 143.983 330.906 141.132 325.61L178.021 307.017L184.019 317.508C184.019 317.508 193.477 316.89 201.919 316.752C201.928 316.752 201.938 316.752 201.947 316.752C207.142 316.66 211.709 316.66 212.872 316.909C215.926 317.582 220.493 322.389 218.841 324.023L218.832 324.032Z" fill="white"/>
<path d="M219.183 324.133C217.476 325.813 159.189 354.278 156.283 353.955C155.175 353.844 149.916 345.281 145.865 334.947L183.465 316.641C183.465 316.641 209.937 316.087 213.093 316.779C216.23 317.481 220.899 322.454 219.192 324.133H219.183Z" fill="#3DA6AD"/>
<path d="M217.208 322.214C207.317 326.745 167.863 345.955 158.433 351.187C158.359 351.233 158.386 351.279 158.46 351.251C168.361 346.97 207.658 327.446 217.282 322.38C217.485 322.27 217.411 322.122 217.199 322.223L217.208 322.214Z" fill="#263238"/>
<path d="M208.304 316.521C205.942 317.555 204.217 319.769 203.626 321.762C203.063 323.681 202.934 326.053 203.986 328.046C204.014 328.101 204.124 328.046 204.106 327.99C202.796 323.893 204.632 318.837 208.369 316.65C208.443 316.604 208.387 316.493 208.304 316.53V316.521Z" fill="#263238"/>
<path d="M186.999 316.124C183.059 317.979 179.203 321.577 178.335 325.96C178.298 326.126 178.547 326.172 178.631 326.062C181.279 322.509 183.973 319.511 187.304 316.576C187.535 316.373 187.285 315.995 186.999 316.124Z" fill="#263238"/>
<path d="M190.588 315.829C186.649 317.684 182.792 321.282 181.924 325.665C181.887 325.831 182.137 325.877 182.22 325.766C184.868 322.214 187.562 319.215 190.893 316.281C191.124 316.078 190.874 315.7 190.588 315.829Z" fill="#263238"/>
<path d="M194.187 315.534C190.247 317.388 186.39 320.987 185.523 325.37C185.486 325.536 185.735 325.582 185.818 325.471C188.466 321.919 191.161 318.92 194.492 315.986C194.722 315.783 194.473 315.405 194.187 315.534Z" fill="#263238"/>
<path d="M197.785 315.239C193.846 317.093 189.989 320.692 189.121 325.074C189.084 325.241 189.334 325.287 189.417 325.176C192.065 321.624 194.759 318.625 198.09 315.691C198.321 315.488 198.072 315.109 197.785 315.239Z" fill="#263238"/>
<path d="M156.384 340.686C152.001 342.846 155.342 349.655 159.734 347.496C164.116 345.337 160.776 338.527 156.384 340.686Z" fill="#263238"/>
<path d="M186.132 303.631C183.355 302.958 181.639 305.781 181.251 308.078C180.624 311.806 181.149 316.337 182.58 319.815C182.617 319.898 182.69 319.907 182.755 319.871C182.976 320.11 183.419 320.184 183.613 319.843C185.458 316.558 187.839 313.273 188.614 309.518C189.066 307.322 188.762 304.268 186.123 303.631H186.132ZM185.394 314.288C184.527 315.931 183.585 317.508 182.773 319.178C182.524 316.89 182.174 314.62 182.146 312.304C182.137 311.197 182.146 310.062 182.284 308.964C182.506 307.257 184.748 302.118 187.212 306.178C188.568 308.42 186.418 312.323 185.385 314.279L185.394 314.288Z" fill="#263238"/>
<path d="M173.574 326.006C177.237 324.862 180.273 322.177 183.364 320.027C183.687 319.806 183.567 319.372 183.308 319.169C183.336 319.105 183.327 319.022 183.244 318.994C179.645 317.905 175.078 317.822 171.433 318.8C169.182 319.409 166.534 321.384 167.475 324.087C168.361 326.643 171.433 326.662 173.574 325.997V326.006ZM170.123 324.936C165.842 322.869 170.741 320.147 172.421 319.76C173.5 319.511 174.626 319.391 175.724 319.298C178.031 319.095 180.319 319.225 182.626 319.262C181.039 320.23 179.553 321.319 178.012 322.343C176.167 323.561 172.485 326.08 170.123 324.945V324.936Z" fill="#263238"/>
<path d="M183.825 311.492L140.2 333.286C140.2 333.286 106.153 264.066 102.416 259.6C97.4334 253.658 32.5772 262.054 17.2789 242.844C1.45472 222.988 15.0183 198.324 15.0183 198.324L64.3917 198.296C64.3917 198.296 64.5393 203.768 61.6882 211.777C61.6882 211.777 118.148 208.418 134.12 223.947C146.382 235.868 183.825 311.492 183.825 311.492Z" fill="#263238"/>
<path d="M52.6918 216.769C55.2385 215.043 57.822 213.41 60.5439 211.971C61.9188 211.242 64.7422 209.996 66.4953 209.572C67.9347 209.221 68.5622 209.119 67.215 209.756C66.44 210.125 64.9637 210.826 63.5796 211.482C63.838 211.482 64.0963 211.463 64.3454 211.454C65.3143 211.408 66.2831 211.371 67.2612 211.343C69.1619 211.297 71.0627 211.306 72.9542 211.297C76.8111 211.279 80.6218 211.638 84.4602 211.832C84.5617 211.832 84.5617 211.998 84.4602 211.989C80.6218 211.86 76.7741 212.072 72.9357 212.054C71.035 212.054 69.1342 212.1 67.2427 212.137C66.3108 212.155 65.3881 212.174 64.4562 212.183C63.6903 212.192 62.8784 212.257 62.0941 212.183C61.6789 212.377 61.3098 212.552 61.033 212.681C58.2372 214.001 55.4599 215.375 52.7656 216.889C52.6826 216.935 52.5995 216.824 52.6826 216.769H52.6918Z" fill="#455A64"/>
<path d="M65.5541 196.451C65.0559 198.776 64.6222 201.129 64.0409 203.436C63.7733 204.497 63.5057 205.576 63.1459 206.61C62.8414 207.477 62.3616 208.483 61.3743 208.704C60.2302 208.963 59.8703 207.994 59.9349 207.043C59.9995 205.982 60.2394 204.912 60.4147 203.869C60.6177 202.661 60.8207 201.452 60.996 200.243C61.0883 199.634 61.1805 199.034 61.2636 198.425C61.282 198.269 61.3559 197.115 61.4297 196.783C61.4389 196.811 61.4573 196.838 61.4943 196.829H61.5312C61.5312 196.829 61.5958 196.792 61.5958 196.765C61.5958 196.672 61.5958 196.654 61.5312 196.589C61.5035 196.562 61.4573 196.562 61.4297 196.589C61.2174 196.718 61.2082 197.014 61.1436 197.244C60.9775 197.835 60.8022 198.425 60.6546 199.025C60.3686 200.142 60.101 201.258 59.8519 202.375C59.612 203.5 59.3721 204.617 59.1414 205.742C58.9661 206.582 58.7539 207.468 59.003 208.317C59.2798 209.239 60.0456 209.692 60.8668 209.728C60.8299 209.802 60.7838 209.876 60.7561 209.959C60.6638 210.19 60.5992 210.439 60.5162 210.67C60.4332 210.909 60.3686 211.149 60.304 211.399C60.2763 211.518 60.2578 211.638 60.2486 211.758C60.2394 211.897 60.2671 212.026 60.2486 212.155C60.2302 212.358 60.5162 212.478 60.6085 212.275C60.6638 212.155 60.7469 212.063 60.8115 211.943C60.8761 211.823 60.9222 211.685 60.9683 211.546C61.0421 211.315 61.0975 211.076 61.1529 210.845C61.199 210.605 61.2636 210.374 61.3005 210.134C61.3189 209.996 61.3189 209.848 61.3282 209.71C61.7987 209.645 62.2601 209.47 62.6476 209.156C63.3212 208.612 63.6995 207.8 63.9579 206.997C64.2716 206.028 64.5115 205.023 64.7514 204.026C65.3419 201.563 65.8217 199.062 65.9693 196.534C65.9878 196.266 65.6095 196.183 65.5449 196.46L65.5541 196.451Z" fill="#455A64"/>
<path d="M41.7579 203.085C41.5918 204.238 41.4903 205.401 41.2689 206.545C41.0474 207.662 40.7798 208.787 40.4569 209.885C40.1432 210.928 39.7464 211.989 39.1467 212.912C38.5654 213.807 37.7903 214.582 36.9783 215.274C35.3913 216.621 33.5828 217.71 31.6544 218.476C30.6856 218.863 29.6798 219.195 28.6741 219.463C28.1481 219.601 27.613 219.712 27.0686 219.795C26.6165 219.869 26.1736 219.897 25.7768 220.136C25.6107 220.238 25.6476 220.506 25.8137 220.589C26.515 220.902 27.4838 220.681 28.2127 220.589C29.0708 220.469 29.929 220.293 30.7594 220.053C32.4387 219.564 34.0626 218.789 35.5389 217.848C36.9876 216.916 38.4362 215.772 39.4788 214.397C40.5584 212.967 41.1397 211.315 41.4811 209.581C41.8963 207.496 42.1547 205.235 41.9701 203.113C41.9609 202.993 41.7671 202.974 41.7487 203.103L41.7579 203.085Z" fill="#455A64"/>
<path d="M174.977 303.557C173.759 303.917 172.614 304.517 171.47 305.043C170.262 305.596 169.044 306.15 167.844 306.722C165.473 307.848 163.129 309.01 160.804 310.228C156.126 312.673 151.457 315.146 146.844 317.711C144.435 319.049 139.268 321.9 139.047 322.177C138.945 322.316 139.111 322.546 139.259 322.482C144.066 320.369 148.763 318.025 153.459 315.691C158.156 313.356 162.843 311.013 167.42 308.457C168.684 307.746 169.929 307.008 171.194 306.279C172.513 305.523 173.925 304.84 175.124 303.889C175.244 303.797 175.152 303.493 174.977 303.548V303.557Z" fill="#455A64"/>
<path d="M15.0551 209.811C15.0551 209.599 15.3873 209.608 15.3781 209.811C15.2858 220.533 16.9374 232.519 25.1955 240.205C34.2472 248.638 47.2941 249.644 59.04 249.543C65.7849 249.487 72.5113 249.312 79.2562 249.524C86.0288 249.736 92.866 250.069 99.5924 250.927C102.305 251.277 104.584 252.255 106.503 254.23C108.367 256.158 109.705 258.53 111.08 260.809C114.475 266.428 117.76 272.112 120.934 277.851C127.255 289.265 133.095 300.928 138.475 312.812C139.139 314.288 139.803 315.764 140.459 317.25C140.505 317.352 140.357 317.435 140.311 317.333C134.849 305.403 128.943 293.675 122.678 282.151C119.541 276.384 116.302 270.682 112.953 265.035C111.375 262.377 109.853 259.665 108.1 257.127C106.55 254.885 104.612 252.772 101.918 251.96C100.303 251.471 98.5682 251.388 96.8981 251.231C95.1727 251.074 93.4565 250.927 91.731 250.807C88.3724 250.558 85.0046 250.373 81.6368 250.253C74.8365 250.004 68.0547 250.087 61.2545 250.216C49.4532 250.428 36.5631 250.022 26.7734 242.512C22.5382 239.264 19.4933 234.807 17.6756 229.806C15.8302 224.713 15.1659 219.241 15.0459 213.844C15.0182 212.497 15.0182 211.14 15.0459 209.793L15.0551 209.811Z" fill="#455A64"/>
<path d="M85.7152 256.767C88.1234 256.814 90.5316 256.915 92.9399 256.989C94.9421 257.053 96.9536 257.035 98.9189 257.524C100.737 257.976 102.185 258.198 103.68 260.237C105.544 262.783 115.675 282.363 119.929 291.027C121.11 293.435 122.272 295.844 123.416 298.261C124.598 300.761 125.64 303.327 126.821 305.827C126.867 305.919 126.729 305.993 126.683 305.901C125.64 303.806 124.478 301.776 123.407 299.7C122.328 297.624 121.285 295.53 120.233 293.435C118.12 289.209 116.007 284.983 113.885 280.757C111.781 276.578 109.225 272.499 107.085 268.329C105.285 264.823 102.84 260.043 101.124 259.342C99.1127 258.511 95.8279 257.681 93.6688 257.533C91.0114 257.349 88.3633 257.183 85.7059 256.961C85.586 256.952 85.586 256.767 85.7059 256.767H85.7152Z" fill="#455A64"/>
<path d="M45.4397 103.48C36.5357 111.111 39.0177 122.248 35.2992 128.282C33.0294 131.973 25.6202 135.876 24.1439 140.13C21.7264 147.124 27.6501 149.633 26.3214 153.435C24.4391 158.814 17.2329 158.399 15.9411 167.211C14.6401 176.022 24.3376 185.388 47.3312 187.925C70.334 190.463 82.9657 182.038 83.7868 174.574C84.608 167.1 76.9589 164.618 76.4422 159.036C76.11 155.474 80.8342 152.983 81.0741 146.422C81.314 139.862 74.9198 137.721 74.0063 132.148C73.0836 126.548 76.0362 113.03 67.8519 106.119C59.6584 99.2081 49.8409 99.7156 45.4489 103.489L45.4397 103.48Z" fill="#263238"/>
<path d="M46.4638 103.674C43.9264 105.455 41.998 107.752 40.5493 110.493C39.0546 113.344 38.0581 116.426 37.2645 119.535C36.794 121.371 36.3603 123.254 35.4745 124.951C34.7087 126.418 33.6107 127.655 32.3835 128.762C29.8922 131.013 26.9304 132.72 24.6882 135.249C22.5753 137.648 20.9236 140.849 21.7725 144.106C22.2339 145.878 23.4057 147.327 24.1254 148.987C24.8174 150.556 25.0942 152.503 23.7471 153.813C22.5937 154.93 20.9329 155.437 19.6226 156.351C18.3401 157.246 17.1959 158.344 16.264 159.608C14.3725 162.173 13.5513 165.301 14.1511 168.456C15.5074 175.607 22.2154 179.676 28.4159 182.241C29.2832 182.601 30.1506 182.943 31.0179 183.293C31.1563 183.349 31.267 183.155 31.1286 183.09C24.9097 180.304 17.6942 177.037 15.3044 170.09C14.2249 166.962 14.5755 163.649 16.3747 160.863C17.2421 159.525 18.377 158.353 19.6595 157.402C20.9144 156.48 22.3538 155.908 23.6271 155.031C24.9189 154.145 25.6571 152.835 25.5832 151.248C25.5002 149.569 24.679 148.102 23.867 146.672C23.0089 145.158 22.28 143.636 22.3999 141.855C22.5107 140.185 23.2857 138.607 24.2361 137.26C26.1738 134.52 29.0341 132.72 31.6084 130.644C34.192 128.559 36.2588 126.151 37.2092 122.903C37.689 121.261 37.9843 119.572 38.3902 117.92C38.7685 116.389 39.2114 114.857 39.7651 113.371C40.8446 110.428 42.3855 107.577 44.6277 105.353C45.2182 104.772 45.8364 104.246 46.5284 103.794C46.6022 103.739 46.5284 103.619 46.4546 103.674H46.4638Z" fill="#263238"/>
<path d="M84.811 169.084C84.525 167.875 83.9898 166.712 83.224 165.734C82.4212 164.719 81.4524 163.861 80.5666 162.929C79.727 162.044 78.9334 161.047 78.6843 159.82C78.3891 158.353 79.0073 156.941 79.6993 155.677C80.419 154.348 81.231 153.093 81.7569 151.673C82.2644 150.298 82.5504 148.849 82.6335 147.382C82.7995 144.328 81.9045 141.421 80.3175 138.829C79.5332 137.546 78.6474 136.328 77.8539 135.046C76.9773 133.634 76.2945 132.167 75.8147 130.58C74.7813 127.12 74.5599 123.466 73.711 119.95C72.8437 116.352 71.5519 112.864 69.9741 109.524C69.9372 109.441 69.8172 109.524 69.8541 109.598C71.2843 112.615 72.3454 115.77 73.1205 119.018C73.8494 122.1 74.1354 125.228 74.6798 128.338C74.9474 129.86 75.2888 131.373 75.8424 132.822C76.3684 134.169 77.0788 135.433 77.8354 136.67C79.3856 139.207 80.9911 141.707 81.4247 144.706C81.8492 147.677 81.3417 150.658 79.9392 153.315C78.7305 155.603 77.0327 158.122 78.0938 160.798C78.9888 163.068 81.1479 164.424 82.5873 166.297C84.1651 168.364 84.6265 171.031 84.1467 173.568C82.9103 180.008 76.4514 183.201 70.417 183.524C70.2324 183.533 70.2324 183.819 70.417 183.819C75.6671 183.755 81.3878 181.448 83.8514 176.53C84.9956 174.251 85.4015 171.566 84.811 169.075V169.084Z" fill="#263238"/>
<path d="M49.3518 149.993C51.5479 159.026 65.9234 190.601 71.0352 194.015C76.9496 197.973 108.275 213.798 114.18 211.888C116.229 211.223 124.976 189.365 121.045 187.667C109.05 182.472 86.4257 178.541 83.2332 175.755C81.1202 173.919 68.3409 158.989 56.6319 146.432C52.203 141.689 47.9309 144.153 49.3518 149.984V149.993Z" fill="#FFA4A1"/>
<path d="M47.6817 149.44C48.7889 155.299 53.8637 166.417 53.8637 166.417L75.8608 162.754C75.8608 162.754 63.1922 148.139 53.9283 143.018C50.2099 140.96 46.556 143.497 47.6817 149.43V149.44Z" fill="#3DA6AD"/>
<path d="M47.6817 149.44C48.7889 155.299 53.8637 166.417 53.8637 166.417L75.8608 162.754C75.8608 162.754 63.1922 148.139 53.9283 143.018C50.2099 140.96 46.556 143.497 47.6817 149.43V149.44Z" fill="#3DA6AD"/>
<path d="M54.5465 154.893C54.5465 155.825 53.7899 156.581 52.858 156.581C51.926 156.581 51.1694 155.825 51.1694 154.893C51.1694 153.961 51.926 153.204 52.858 153.204C53.7899 153.204 54.5465 153.961 54.5465 154.893Z" fill="white"/>
<path d="M53.5223 163.418C56.7517 162.662 59.9904 161.951 63.2567 161.379C64.8899 161.093 66.5231 160.835 68.1655 160.604C69.7986 160.374 71.4687 160.309 73.1019 160.051C73.1942 160.032 73.2126 160.18 73.1203 160.189C71.4779 160.355 69.8448 160.752 68.2208 161.01C66.5877 161.269 64.9545 161.536 63.3213 161.822C60.0642 162.376 56.7979 162.929 53.55 163.557C53.4577 163.575 53.4485 163.437 53.5315 163.418H53.5223Z" fill="#263238"/>
<path opacity="0.1" d="M70.9611 163.575L53.8636 166.417C53.8636 166.417 48.7888 155.308 47.6908 149.43C47.1279 146.404 47.7923 144.272 49.0841 143.165L70.9704 163.575H70.9611Z" fill="black"/>
<path d="M66.3847 206.767L6.57568 208.732C6.57568 208.732 24.7251 156.646 37.8735 144.208C43.8525 138.552 49.2872 139.797 53.7069 143.95C54.8049 144.983 68.0825 164.129 68.9129 170.569C69.6511 176.262 64.6962 182.223 64.6962 182.223L66.3847 206.767Z" fill="#3DA6AD"/>
<path d="M23.2488 170.846C23.2488 171.778 22.4922 172.535 21.5603 172.535C21.4034 172.535 21.2466 172.516 21.099 172.461C21.5603 171.446 22.0217 170.44 22.4922 169.444C22.9536 169.739 23.2488 170.256 23.2488 170.846ZM42.4224 169.158C41.4905 169.158 40.7339 169.914 40.7339 170.846C40.7339 171.778 41.4905 172.535 42.4224 172.535C43.3544 172.535 44.111 171.778 44.111 170.846C44.111 169.914 43.3544 169.158 42.4224 169.158ZM63.2846 169.158C62.3526 169.158 61.596 169.914 61.596 170.846C61.596 171.778 62.3526 172.535 63.2846 172.535C64.2165 172.535 64.9731 171.778 64.9731 170.846C64.9731 169.914 64.2165 169.158 63.2846 169.158ZM31.9868 153.204C31.0548 153.204 30.2982 153.961 30.2982 154.893C30.2982 155.825 31.0548 156.581 31.9868 156.581C32.9187 156.581 33.6753 155.825 33.6753 154.893C33.6753 153.961 32.9187 153.204 31.9868 153.204ZM52.8489 153.204C51.917 153.204 51.1603 153.961 51.1603 154.893C51.1603 155.825 51.917 156.581 52.8489 156.581C53.7808 156.581 54.5374 155.825 54.5374 154.893C54.5374 153.961 53.7808 153.204 52.8489 153.204ZM21.5511 201.784C20.6192 201.784 19.8625 202.541 19.8625 203.473C19.8625 204.404 20.6192 205.161 21.5511 205.161C22.483 205.161 23.2396 204.404 23.2396 203.473C23.2396 202.541 22.483 201.784 21.5511 201.784ZM42.4132 201.784C41.4813 201.784 40.7247 202.541 40.7247 203.473C40.7247 204.404 41.4813 205.161 42.4132 205.161C43.3451 205.161 44.1017 204.404 44.1017 203.473C44.1017 202.541 43.3451 201.784 42.4132 201.784ZM63.2753 201.784C62.3434 201.784 61.5868 202.541 61.5868 203.473C61.5868 204.404 62.3434 205.161 63.2753 205.161C64.2072 205.161 64.9639 204.404 64.9639 203.473C64.9639 202.541 64.2072 201.784 63.2753 201.784ZM31.9775 185.831C31.0456 185.831 30.289 186.587 30.289 187.519C30.289 188.451 31.0456 189.208 31.9775 189.208C32.9095 189.208 33.6661 188.451 33.6661 187.519C33.6661 186.587 32.9095 185.831 31.9775 185.831ZM52.8397 185.831C51.9077 185.831 51.1511 186.587 51.1511 187.519C51.1511 188.451 51.9077 189.208 52.8397 189.208C53.7716 189.208 54.5282 188.451 54.5282 187.519C54.5282 186.587 53.7716 185.831 52.8397 185.831Z" fill="white"/>
<path d="M61.0055 182.158C59.806 181.992 58.5788 181.946 57.3793 182.048C56.8072 182.094 56.2352 182.149 55.6723 182.26C55.0357 182.389 54.4174 182.564 53.79 182.703C53.6885 182.721 53.7347 182.887 53.8362 182.86C54.4544 182.73 55.1002 182.684 55.7369 182.629C56.3182 182.583 56.8903 182.5 57.4623 182.463C58.6434 182.38 59.8244 182.297 61.0055 182.241C61.0516 182.241 61.0608 182.168 61.0055 182.158Z" fill="#263238"/>
<path d="M61.513 179.593C58.7911 179.704 56.1799 180.101 53.5594 180.867C50.8744 181.651 48.1893 182.703 45.4028 183.035C45.3013 183.044 45.3013 183.21 45.4028 183.201C46.7407 183.053 48.0694 182.906 49.398 182.703C50.7267 182.5 52.0277 182.168 53.338 181.882C56.0784 181.273 58.7265 180.248 61.5038 179.815C61.633 179.796 61.633 179.602 61.5038 179.602L61.513 179.593Z" fill="#263238"/>
<path d="M43.5296 142.279C43.5112 143.368 46.7498 151.239 51.5017 152.189C53.0426 152.494 55.091 144.134 55.091 144.134L55.3862 143.553L59.4646 135.396L50.9389 126.363L49.684 125.136C49.684 125.136 48.7152 127.442 47.5341 130.321C47.4788 130.45 47.4234 130.589 47.368 130.727C47.2942 130.884 47.2296 131.041 47.165 131.198C46.9805 131.622 46.796 132.065 46.6299 132.508C46.5007 132.84 46.3623 133.163 46.2331 133.523C46.0947 133.874 45.9748 134.224 45.8364 134.575C44.563 138.1 43.5481 141.818 43.5296 142.279Z" fill="#FFA4A1"/>
<path d="M47.5342 130.312C48.3 137.804 53.098 141.975 55.3863 143.544L59.4646 135.387L50.9389 126.354L49.6841 125.127C49.6841 125.127 48.7152 127.433 47.5342 130.312Z" fill="#263238"/>
<path d="M75.4272 125.929C72.1886 141.615 62.4357 141.44 59.0494 140.739C55.9768 140.102 45.615 137.546 47.2112 121.611C48.8075 105.676 57.121 102.225 64.2165 103.314C71.312 104.403 78.6566 110.244 75.418 125.929H75.4272Z" fill="#FFA4A1"/>
<path d="M69.2544 138.1C69.928 137.546 70.5093 136.882 71.0167 136.18C71.5427 135.488 71.9948 134.741 72.4192 133.984C73.2497 132.462 73.8863 130.838 74.3753 129.168C74.929 127.516 75.2335 125.8 75.5564 124.084L75.9162 121.491L76.1838 118.88L76.1469 121.51L75.9162 124.139C75.6671 125.883 75.3442 127.618 74.8182 129.306C74.2831 130.986 73.6372 132.647 72.7237 134.16C71.8103 135.664 70.7123 137.112 69.2544 138.1Z" fill="#263238"/>
<path d="M74.0707 121.325C73.7109 121.196 73.4064 121.021 73.065 120.864C72.6774 120.679 72.3545 120.578 72.133 120.199C72.0131 119.996 72.1054 119.655 72.2899 119.526C72.7236 119.212 73.2495 119.314 73.7201 119.517C74.2276 119.738 74.569 120.033 74.8273 120.522C75.0764 121.002 74.5413 121.5 74.0707 121.334V121.325Z" fill="#263238"/>
<path d="M63.0815 120.273C63.4598 120.31 63.8105 120.292 64.1888 120.292C64.6132 120.292 64.9546 120.338 65.3237 120.098C65.5174 119.969 65.5913 119.627 65.4805 119.424C65.2314 118.945 64.7055 118.815 64.198 118.788C63.6444 118.76 63.2107 118.88 62.7678 119.212C62.3341 119.535 62.5925 120.218 63.0908 120.273H63.0815Z" fill="#263238"/>
<path d="M64.6683 124.674C64.6683 124.674 64.576 124.711 64.5668 124.748C64.3823 125.819 63.9855 127.027 62.9521 127.184C62.9244 127.184 62.9152 127.24 62.9521 127.249C64.1608 127.323 64.6683 125.726 64.6775 124.674H64.6683Z" fill="#263238"/>
<path d="M63.9487 123.364C62.2602 122.884 61.4205 126.298 62.9799 126.751C64.5208 127.193 65.3605 123.77 63.9487 123.364Z" fill="#263238"/>
<path d="M63.2292 123.373C62.8785 123.493 62.5095 123.761 62.1404 123.706C61.7159 123.641 61.4853 123.207 61.3007 122.801C61.2823 122.755 61.2454 122.783 61.2361 122.829C61.0608 123.484 61.1531 124.213 61.8267 124.49C62.4449 124.739 63.0446 124.269 63.3768 123.65C63.4414 123.54 63.3768 123.327 63.2384 123.373H63.2292Z" fill="#263238"/>
<path d="M70.6108 125.892C70.6108 125.892 70.6846 125.966 70.6661 126.003C70.3617 127.055 70.1956 128.301 71.0629 128.9C71.0906 128.919 71.0721 128.974 71.0352 128.956C69.9095 128.494 70.1494 126.834 70.6108 125.892Z" fill="#263238"/>
<path d="M71.838 125.034C73.5727 125.339 72.8345 128.78 71.229 128.494C69.6512 128.218 70.3801 124.776 71.838 125.034Z" fill="#263238"/>
<path d="M72.5024 125.413C72.7331 125.653 72.9361 126.04 73.2498 126.132C73.6189 126.234 73.9787 125.92 74.2924 125.616C74.3293 125.588 74.3478 125.616 74.3386 125.662C74.2186 126.326 73.8495 126.963 73.1944 126.954C72.5947 126.954 72.2902 126.289 72.2717 125.606C72.2717 125.477 72.4009 125.311 72.4932 125.413H72.5024Z" fill="#263238"/>
<path d="M62.4081 133.329C62.5834 133.652 62.7402 134.058 63.1093 134.206C63.4599 134.344 63.9397 134.307 64.3088 134.271C64.3457 134.271 64.3642 134.317 64.3365 134.335C63.949 134.658 63.3031 134.741 62.8417 134.51C62.3896 134.289 62.2789 133.809 62.2881 133.348C62.2881 133.283 62.3804 133.283 62.3988 133.329H62.4081Z" fill="#263238"/>
<path d="M67.7504 130.534C67.7504 130.534 67.6027 132.167 67.4274 132.914C67.409 132.988 67.2244 132.979 66.9661 132.933C66.9569 132.933 66.9476 132.933 66.9384 132.933C65.5728 132.831 64.3456 132.065 63.792 130.801C63.7551 130.718 63.8658 130.663 63.9304 130.727C64.7516 131.678 65.7943 132.121 66.9569 132.416C67.0584 132.222 67.1229 129.602 67.2429 129.62C67.6581 129.685 68.3963 130.146 68.8484 130.404C69.2636 127 69.1252 123.567 69.5865 120.181C69.605 120.061 69.7803 120.061 69.7895 120.181C70.1863 123.779 69.7895 127.701 69.4574 131.226C69.4205 131.669 68.0087 130.746 67.7412 130.543L67.7504 130.534Z" fill="#263238"/>
<path d="M48.1246 123.069C49.8592 123.254 55.1278 119.286 56.6687 111.019C56.6687 111.019 54.7772 118.345 54.0298 119.341C53.2824 120.338 56.9824 117.108 58.3111 110.456C58.3111 110.456 61.559 113.75 64.567 115.171C67.575 116.592 69.5126 116.887 69.771 116.693C70.0386 116.499 65.6373 114.257 64.6224 112.596C64.6224 112.596 72.3638 117.92 76.1837 118.871C76.6266 118.981 78.7119 109.865 73.3879 104.938C68.064 100.02 57.8682 102.641 54.9064 104.67C54.9064 104.67 51.843 104.587 47.8385 108.472C43.834 112.347 46.2515 122.866 48.1153 123.069H48.1246Z" fill="#263238"/>
<path d="M60.4888 129.177C58.3758 128.439 56.9364 126.326 57.1486 123.992C57.3885 121.233 59.8337 119.184 62.5925 119.424C65.3514 119.664 67.3998 122.109 67.1599 124.868C66.92 127.627 64.4748 129.675 61.716 129.436C61.2916 129.399 60.8763 129.306 60.498 129.177H60.4888ZM63.5891 120.329C63.2569 120.209 62.897 120.135 62.528 120.098C60.1382 119.886 58.0252 121.666 57.813 124.056C57.6008 126.446 59.3816 128.568 61.7713 128.771C64.1611 128.983 66.2833 127.203 66.4863 124.813C66.6616 122.792 65.4252 120.965 63.5891 120.319V120.329Z" fill="#EA6161"/>
<path d="M71.7548 131.632C69.9371 130.995 68.9406 128.559 69.5127 126.003C69.7987 124.711 70.4446 123.576 71.3119 122.811C72.2161 122.017 73.2588 121.694 74.2553 121.916C75.2518 122.137 76.0638 122.866 76.5436 123.973C77.0049 125.044 77.0972 126.345 76.8112 127.636C76.2022 130.34 74.08 132.176 72.0685 131.724C71.9578 131.696 71.8563 131.669 71.7548 131.632ZM74.366 122.645C74.283 122.617 74.1999 122.589 74.1169 122.571C73.3418 122.395 72.5022 122.663 71.764 123.309C70.9982 123.982 70.4353 124.997 70.1678 126.151C69.6418 128.494 70.5553 130.7 72.2161 131.069C73.8678 131.438 75.6393 129.832 76.1653 127.489C76.4236 126.335 76.3406 125.182 75.9346 124.241C75.584 123.438 75.0304 122.875 74.366 122.645Z" fill="#EA6161"/>
<path d="M66.8645 125.403L66.5508 124.804C67.4366 124.342 69.3465 123.89 70.2508 125.44L69.6695 125.782C68.8575 124.388 66.9383 125.357 66.8553 125.403H66.8645Z" fill="#EA6161"/>
<path d="M44.7384 121.777L44.2217 121.344C44.4247 121.104 46.2332 119 47.7464 119.092C49.1673 119.184 57.7668 121.971 58.1359 122.091L57.9237 122.728C55.4601 121.925 48.7982 119.83 47.7095 119.766C46.7037 119.71 45.2274 121.196 44.7384 121.777Z" fill="#EA6161"/>
<path d="M45.9932 127.387C46.2147 127.563 46.4361 127.682 46.6484 127.784C46.8975 127.913 47.1374 127.978 47.3681 128.015C47.7279 128.088 48.0509 128.061 48.3369 127.996C48.6045 127.941 48.8444 127.839 49.0474 127.719C49.5825 127.424 49.887 127.027 49.887 127.027L50.2653 122.672C50.2653 122.672 48.3461 116.887 45.8179 117.431C43.2805 117.976 43.7234 125.671 45.9932 127.378V127.387Z" fill="#FFA4A1"/>
<path d="M45.9933 119.637C45.9933 119.637 45.9287 119.673 45.9564 119.701C47.5249 120.956 47.9771 122.903 48.1247 124.813C47.7925 123.992 47.1743 123.41 46.0948 123.779C46.0394 123.798 46.0579 123.881 46.1132 123.89C46.8975 123.955 47.3865 124.241 47.7003 124.97C47.9309 125.486 48.014 126.086 48.1155 126.64C48.1524 126.824 48.4661 126.824 48.4569 126.621V126.575C49.1766 124.305 48.3646 120.587 45.984 119.627L45.9933 119.637Z" fill="#263238"/>
<path d="M46.3993 126.806C46.3624 127.212 46.6669 127.572 47.0728 127.609C47.4788 127.646 47.8387 127.341 47.8756 126.935C47.9125 126.529 47.608 126.169 47.202 126.132C46.796 126.095 46.4362 126.4 46.3993 126.806Z" fill="white"/>
<path d="M45.2551 125.293C45.2274 125.579 45.4397 125.837 45.7257 125.865C46.0117 125.892 46.2701 125.68 46.2978 125.394C46.3254 125.108 46.1132 124.85 45.8272 124.822C45.5412 124.794 45.2828 125.007 45.2551 125.293Z" fill="white"/>
<path d="M54.8512 117.551L51.1235 113.519L50.127 114.589L54.2791 118.142L54.8512 117.551Z" fill="#FEE7A6"/>
<path d="M53.9837 118.659L49.6009 115.346L48.8167 116.582L53.5224 119.341L53.9837 118.659Z" fill="#FEE7A6"/>
<path d="M34.4042 147.133C27.8069 153.324 7.70142 177.637 7.73833 184.594C7.79369 195.187 44.8768 209.258 50.6805 212.764C53.1534 214.259 61.882 188.497 59.2708 186.846C56.9918 185.406 31.9314 179.187 31.9867 178.052C32.0329 177.102 37.4306 165.107 41.5182 150.51C44.7199 139.069 37.8551 143.903 34.4134 147.142L34.4042 147.133Z" fill="#FFA4A1"/>
<path d="M68.2488 195.842C67.0862 194.624 67.7136 194.006 70.6755 194.43C73.665 194.845 84.9772 199.016 86.1029 194.938C87.2378 190.841 71.1276 185.203 66.145 184.89C61.1717 184.557 53.0059 185.794 53.0059 185.794C55.9216 187.519 62.5834 192.382 68.2488 195.851V195.842Z" fill="#FFA4A1"/>
<path d="M72.4192 194.809C74.0523 194.993 75.6578 195.362 77.2633 195.722C78.8596 196.091 80.4558 196.506 82.0613 196.682C82.8548 196.755 83.6668 196.765 84.3681 196.525C85.0693 196.303 85.5676 195.676 85.7152 194.984C85.8444 194.319 85.4292 193.618 84.9217 193.046C84.3957 192.474 83.7683 191.967 83.104 191.514C81.7845 190.592 80.3359 189.826 78.8688 189.115C77.3925 188.414 75.8977 187.759 74.3568 187.224C72.8159 186.68 71.2473 186.191 69.6695 185.748C68.0917 185.323 66.5047 184.843 64.8623 184.834C66.5139 184.687 68.1471 185.102 69.7526 185.425C71.3581 185.803 72.9451 186.237 74.5229 186.716C76.11 187.178 77.6324 187.861 79.1364 188.534C80.6312 189.235 82.1167 189.992 83.4915 190.942C84.1743 191.422 84.8386 191.957 85.4107 192.603C85.9551 193.24 86.5179 194.089 86.3334 195.095C86.1396 196.008 85.4568 196.811 84.5711 197.078C83.7037 197.364 82.8272 197.291 82.006 197.198C78.7027 196.663 75.6578 195.445 72.4284 194.818L72.4192 194.809Z" fill="#263238"/>
<path d="M109.327 211.232H47.8755V213.991H109.327V211.232Z" fill="#C7C7C7"/>
<path d="M72.613 211.232L70.5093 213.991H120.916V211.232H72.613Z" fill="#A6A6A6"/>
<path d="M75.2427 213.991H135.135L140.117 173.31H80.2345L75.2427 213.991Z" fill="#FEE7A6"/>
<path d="M104.04 193.646C104.003 195.657 105.609 197.291 107.62 197.291C109.631 197.291 111.292 195.657 111.329 193.646C111.366 191.634 109.761 190.001 107.749 190.001C105.738 190.001 104.077 191.634 104.04 193.646Z" fill="white"/>
<path d="M42.7085 208.501C51.2526 214.268 61.2454 219.26 72.004 218.909C74.117 218.835 75.2981 217.737 75.2981 217.737C80.1238 217.664 81.5355 215.366 81.5355 215.366C86.0105 213.918 87.1362 211.371 87.1362 211.371C87.1362 211.371 92.8016 211.223 93.2814 207.782C93.8258 203.925 85.7614 204.894 81.0095 202.707C70.1033 197.706 56.0045 187.547 53.0058 185.794L42.7085 208.501Z" fill="#FFA4A1"/>
<path d="M65.8959 205.493C69.1345 206.905 72.2809 208.363 75.6857 209.332C79.4318 210.384 83.2056 210.771 87.044 211.26C87.164 211.279 87.1548 211.445 87.0348 211.445C79.9485 211.657 71.8657 209.313 65.8221 205.632C65.6744 205.539 65.7298 205.419 65.8867 205.484L65.8959 205.493Z" fill="#263238"/>
<path d="M61.9189 211.629C65.1483 212.829 70.8321 214.886 81.5354 215.246C81.5723 215.246 81.5815 215.311 81.5354 215.311C74.5506 216.003 68.1563 214.739 61.8543 211.786C61.6605 211.694 61.6974 211.555 61.9097 211.629H61.9189Z" fill="#263238"/>
<path d="M59.8429 214.969C65.4067 216.796 69.1436 217.239 75.2703 217.71C75.3072 217.71 75.3072 217.774 75.2703 217.774C68.2578 217.968 65.6835 217.248 59.7506 215.154C59.5476 215.08 59.6214 214.905 59.8429 214.969Z" fill="#263238"/>
<path d="M15.8857 164.932L38.501 167.404C38.501 167.404 42.4224 156.664 43.7603 150.418C45.5227 142.15 42.8653 139.558 34.5611 145.767C29.0065 149.919 15.8857 164.941 15.8857 164.941V164.932Z" fill="#3DA6AD"/>
<path d="M15.8857 164.932L38.501 167.404C38.501 167.404 42.4224 156.664 43.7603 150.418C45.5227 142.15 42.8653 139.558 34.5611 145.767C29.0065 149.919 15.8857 164.941 15.8857 164.941V164.932Z" fill="#3DA6AD"/>
<path d="M33.6754 154.893C33.6754 155.825 32.9188 156.581 31.9869 156.581C31.0549 156.581 30.2983 155.825 30.2983 154.893C30.2983 153.961 31.0549 153.204 31.9869 153.204C32.9188 153.204 33.6754 153.961 33.6754 154.893Z" fill="white"/>
<path d="M35.7421 167.109C35.9913 167.091 38.3165 167.266 38.4825 167.331C38.9162 166.057 39.3222 164.775 39.7651 163.501C39.9865 162.865 40.2172 162.237 40.4663 161.61C40.7339 160.918 41.0015 160.115 41.2322 159.506C41.2691 159.414 41.3983 159.451 41.3706 159.543C41.1399 160.364 40.9461 160.973 40.7431 161.693C40.5678 162.33 40.3648 162.966 40.1618 163.594C39.719 164.922 39.313 166.362 38.8055 167.663C38.7686 167.764 35.9636 167.257 35.7237 167.183C35.6868 167.174 35.696 167.109 35.7329 167.1L35.7421 167.109Z" fill="#263238"/>
<path d="M19.3736 162.302C22.5662 162.431 25.7402 162.606 28.9235 162.92C30.5106 163.077 32.0884 163.252 33.6662 163.465C35.244 163.668 36.8033 164.037 38.3811 164.221C38.4642 164.23 38.4457 164.369 38.3627 164.36C36.8033 164.092 35.1794 164.046 33.6016 163.861C32.0146 163.686 30.4368 163.511 28.8497 163.354C25.6849 163.031 22.52 162.699 19.346 162.45C19.2537 162.45 19.2814 162.311 19.3644 162.311L19.3736 162.302Z" fill="#263238"/>
<path d="M29.4863 150.556C29.5509 150.491 29.4586 150.399 29.394 150.455C28.3514 151.35 27.3364 152.254 26.3214 153.167C26.6075 152.724 26.9304 152.309 27.2995 151.94C27.318 151.922 27.2995 151.894 27.2718 151.912C26.7367 152.411 26.2938 152.974 25.8785 153.573C24.5591 154.782 23.2673 156.018 22.0125 157.319C19.7334 159.682 17.4267 162.127 15.489 164.775C15.3691 164.932 15.5167 165.125 15.6828 165.144C16.7531 165.255 17.8788 165.328 18.9307 165.541C19.0506 165.568 19.0783 165.393 18.9583 165.375C18.0264 165.245 17.076 164.996 16.1441 164.766C18.3217 162.459 20.3793 160.032 22.5476 157.725C24.8267 155.308 27.1057 152.881 29.4771 150.556H29.4863Z" fill="#263238"/>
<path d="M139.195 180.184C141.455 183.672 147.028 187.741 147.794 190.73C148.486 193.424 146.336 194.698 146.336 194.698C146.336 194.698 149.566 195.805 149.815 198.638C149.944 200.096 147.73 201.572 147.73 201.572C147.73 201.572 150.276 202.578 150.341 205.106C150.396 207.117 148.172 208.307 148.172 208.307C148.172 208.307 150.165 210.411 149.566 212.478C148.339 216.676 131.195 218.937 127.716 212.976C126.092 210.199 130.309 209.867 130.309 209.867C130.309 209.867 124.127 208.87 123.573 205.346C123.02 201.821 128.519 201.729 128.519 201.729C128.519 201.729 122.54 200.714 122.328 197.004C122.106 193.138 127.633 193.997 127.633 193.997C127.633 193.997 123.481 191.911 123.97 189.042C124.782 184.29 134.553 189.337 138.207 187.953L139.204 180.202L139.195 180.184Z" fill="#FFA4A1"/>
<path d="M147.84 208.538C147.896 208.529 147.923 208.603 147.868 208.621C142.415 210.743 135.762 211.399 130.069 209.904C129.885 209.858 129.885 209.525 130.097 209.544C136.26 209.959 141.769 209.839 147.84 208.538Z" fill="#263238"/>
<path d="M147.813 201.6C147.877 201.581 147.905 201.692 147.831 201.719C142.193 203.869 134.692 204.405 128.325 201.913C128.104 201.83 127.993 201.535 128.252 201.609C132.607 202.947 142.341 202.799 147.803 201.6H147.813Z" fill="#263238"/>
<path d="M127.218 193.655C133.409 195.814 139.675 195.768 146.097 194.79C146.18 194.781 146.189 194.901 146.124 194.928C143.107 196.257 138.955 196.451 135.698 196.331C132.588 196.211 129.802 195.482 127.135 193.867C127.034 193.803 127.08 193.609 127.209 193.655H127.218Z" fill="#263238"/>
<path d="M348.554 302.146C347.705 305.735 346.819 309.269 346.644 312.95C346.745 313.135 346.727 313.799 346.616 313.615C346.598 314.205 345.693 314.104 345.693 313.513C345.693 313.135 345.712 312.747 345.73 312.378C343.617 309.758 340.554 308.097 338.072 305.818C336.07 303.972 334.63 301.776 333.874 299.138C331.816 292.051 333.745 284.55 331.272 277.482C329.14 271.392 325.32 266.096 322.082 260.569C318.668 254.728 316.149 248.602 315.9 241.764C315.697 236.533 316.324 229.548 320.31 225.626C324.536 221.465 329.777 224.584 333.016 228.293C342.399 239.061 346.745 252.671 348.498 266.585C349.467 274.289 350.473 282.031 350.242 289.809C350.113 293.989 349.513 298.076 348.563 302.127L348.554 302.146Z" fill="#FFC727"/>
<path d="M346.681 315.783C347.17 308.503 347.133 301.214 346.422 293.961C346.432 293.934 346.459 293.915 346.459 293.878C346.579 287.982 347.05 282.105 346.819 276.199C346.57 269.787 345.629 263.494 344.226 257.238C344.208 257.164 344.097 257.183 344.116 257.256C345.269 263.365 345.943 269.593 346.164 275.803C346.284 279.134 346.256 282.474 346.081 285.795C346.026 286.875 345.924 287.973 345.85 289.062C343.47 272.453 337.343 256.712 328.301 242.613C328.181 242.42 327.839 242.623 327.959 242.826C334.474 253.455 339.272 265.136 342.243 277.251C337.731 268.892 330.912 262.018 325.856 253.981C325.828 253.935 325.754 253.981 325.782 254.027C330.321 262.968 337.832 270.027 342.612 278.838C343.442 282.428 344.125 286.054 344.623 289.698C345.315 294.709 345.647 299.747 345.712 304.794C342.962 299.654 340.111 294.746 337.86 289.311C337.804 289.163 337.592 289.265 337.638 289.412C339.548 295.059 342.123 301.14 345.721 305.947C345.74 309.518 345.638 313.089 345.426 316.66C344.863 326.182 343.239 335.584 342.482 345.079C342.464 345.365 342.861 345.401 342.916 345.125C344.891 335.538 346.026 325.527 346.672 315.774L346.681 315.783Z" fill="#263238"/>
<path d="M336.568 242.318C336.54 242.253 336.439 242.3 336.467 242.364C338.21 247.171 339.188 252.052 340.443 256.98C340.499 257.201 340.831 257.155 340.803 256.924C340.296 251.923 338.506 246.931 336.568 242.318Z" fill="#263238"/>
<path d="M380.747 266.668C379.621 269.491 378.218 272.232 376.742 274.889C373.605 280.582 370.339 285.795 369.748 292.42C369.48 295.382 369.388 298.353 368.493 301.204C367.718 303.668 366.454 305.947 364.996 308.078C361.601 313.024 357.356 317.287 354.21 322.417C350.934 327.75 348.517 333.619 347.041 339.699C346.967 340.031 346.441 339.939 346.515 339.607C346.524 339.579 346.533 339.561 346.533 339.533C346.524 339.515 346.505 339.496 346.505 339.459C346.007 325.259 347.142 310.939 351.469 297.329C353.361 291.378 355.705 285.463 358.353 279.807C360.678 274.871 363.566 270.128 367.644 266.446C370.283 264.066 376.022 259.554 379.787 261.944C381.595 263.097 381.457 264.906 380.747 266.677V266.668Z" fill="#FFC727"/>
<path d="M366.472 298.87C364.037 303.031 361.149 306.907 358.214 310.736C356.84 312.535 355.446 314.316 354.071 316.106C353.426 316.955 352.697 317.804 352.097 318.717C352.475 317.222 352.835 315.728 353.223 314.233C355.059 307.054 356.821 299.811 359.543 292.919C362.21 286.174 365.762 279.835 369.407 273.588C369.499 273.422 369.241 273.302 369.139 273.468C366.14 278.405 363.095 283.332 360.567 288.536C359.156 291.442 357.974 294.432 356.932 297.477C358.159 290.953 359.626 284.688 361.776 278.368C361.794 278.312 361.711 278.275 361.693 278.331C359.072 284.522 357.19 291.488 356.664 298.206C356.664 298.215 356.664 298.224 356.673 298.233C356.055 300.079 355.492 301.943 354.966 303.816C352.724 311.76 350.768 319.797 348.941 327.852C348.969 322.528 349.31 317.305 350.316 312.055C350.335 311.935 350.159 311.908 350.132 312.028C348.812 317.435 348.212 323.128 348.757 328.682C348.065 331.746 347.4 334.818 346.745 337.882C345.352 344.433 343.636 351.094 342.815 357.747C342.796 357.922 343.036 357.959 343.073 357.793C344.051 354.213 344.632 350.495 345.435 346.869C346.238 343.233 347.059 339.598 347.908 335.962C349.144 330.675 350.436 325.407 351.746 320.138C352.623 318.21 354.33 316.493 355.603 314.879C357.006 313.098 358.399 311.326 359.765 309.518C362.302 306.159 364.627 302.662 366.602 298.944C366.648 298.861 366.519 298.805 366.472 298.888V298.87Z" fill="#263238"/>
<path d="M367.081 292.799C364 296.757 361.204 301.131 359.008 305.633C358.98 305.689 359.073 305.753 359.109 305.698C361.831 301.435 364.498 297.145 367.211 292.882C367.257 292.808 367.137 292.734 367.081 292.799Z" fill="#263238"/>
<path d="M303.582 283.332C305.547 286.432 307.789 290.15 307.153 293.989C306.747 296.416 305.058 298.436 304.837 300.909C304.338 306.362 309.874 309.73 313.888 312.138C323.881 318.154 337.472 323.34 339.751 336.331C339.834 336.793 340.628 336.645 340.554 336.193C340.554 336.165 340.545 336.138 340.536 336.11C340.554 336.082 340.582 336.073 340.582 336.027C341.587 329.365 341.292 322.62 339.622 316.087C337.906 309.416 334.732 303.474 331.041 297.698C324.785 287.918 318.179 277.916 309.007 270.589C306.47 268.569 301.293 264.952 299.522 269.814C297.806 274.539 301.183 279.558 303.591 283.332H303.582Z" fill="#FFC727"/>
<path d="M313.325 304.203C320.061 310.948 330.487 314.473 336.356 322.094C332.591 310.21 326.723 299.627 317.966 290.566C317.745 290.335 318.068 289.975 318.308 290.197C324.674 295.862 329.491 302.579 333.099 309.933C331.401 304.646 329.113 299.673 326.474 294.746C326.372 294.561 326.64 294.386 326.75 294.57C330.081 299.774 332.388 305.67 333.92 311.649C341.938 329.107 343.424 349.895 342.621 368.653C342.612 368.921 342.206 368.949 342.196 368.672C342.049 353.918 341.228 338.933 337.131 324.678C337.048 324.382 336.955 324.087 336.863 323.792C330.487 315.589 320.107 312.083 313.215 304.323C313.15 304.249 313.251 304.129 313.325 304.203Z" fill="#263238"/>
<path d="M311.591 298.252C315.106 301.232 318.566 304.286 322.082 307.267C322.119 307.294 322.082 307.359 322.036 307.331C318.243 304.969 314.359 301.813 311.397 298.464C311.277 298.326 311.452 298.132 311.591 298.252Z" fill="#263238"/>
<path d="M310.539 284.79C313.814 289.606 317.219 294.109 321.233 298.353C321.288 298.409 321.205 298.492 321.15 298.446C316.878 294.635 313.03 289.984 310.363 284.9C310.299 284.78 310.465 284.67 310.539 284.79Z" fill="#263238"/>
<path d="M328.79 380.104H358.519L354.514 340.096H333.366L328.79 380.104Z" fill="#455A64"/>
<path d="M332.619 346.601H355.17L354.514 340.096H333.366L332.619 346.601Z" fill="#263238"/>
<path d="M329.712 342.052H357.587V335.667H329.712V342.052Z" fill="#455A64"/>
</svg>
