<svg width="428" height="926" viewBox="0 0 428 926" fill="none" xmlns="http://www.w3.org/2000/svg">
<rect width="428" height="926" rx="40" fill="url(#paint0_linear_802_1393)"/>
<path d="M255.282 462.444C252.228 462.444 249.753 459.986 249.753 456.954C249.753 453.921 252.228 451.463 255.282 451.463C269.43 451.463 280.94 440.033 280.94 425.983C280.94 411.933 269.929 400.638 255.871 400.638H252.244L248.698 392.528C244.461 383.688 235.37 377.979 225.512 377.979C220.06 377.979 214.856 379.654 210.46 382.821C207.99 384.601 204.533 384.057 202.738 381.602C200.945 379.149 201.495 375.714 203.965 373.934C210.263 369.398 217.712 367 225.514 367C239.657 367 252.696 375.21 258.735 387.917L258.807 388.074L259.578 389.84C278.033 391.649 292 406.875 292 425.986C292 446.092 275.529 462.447 255.283 462.447L255.282 462.444Z" fill="#5A5FD6"/>
<path fill-rule="evenodd" clip-rule="evenodd" d="M196.963 391.447H226.033C230.463 391.447 234.712 393.207 237.844 396.339C240.977 399.472 242.737 403.721 242.737 408.151V445.867C242.737 450.297 240.977 454.545 237.844 457.678C234.712 460.811 230.463 462.571 226.033 462.571H152.704C148.274 462.571 144.025 460.811 140.892 457.678C137.76 454.545 136 450.297 136 445.867V389.862C136 385.432 137.76 381.183 140.892 378.05C144.025 374.918 148.274 373.158 152.704 373.158H180.259C184.689 373.158 188.938 374.918 192.071 378.05C195.203 381.183 196.963 385.432 196.963 389.862V391.447Z" fill="#FFB225"/>
<path d="M212.043 404.464H169.369C166.563 404.464 164.289 406.738 164.289 409.544C164.289 412.35 166.563 414.624 169.369 414.624H212.043C214.849 414.624 217.124 412.35 217.124 409.544C217.124 406.738 214.849 404.464 212.043 404.464Z" fill="white"/>
<path d="M155.879 517L154.121 512.312H143.32L141.523 517H135.234L146.367 488.992H151.152L162.324 517H155.879ZM145.273 507.234H152.168L148.77 498.289L145.273 507.234ZM183.418 506.316C183.418 507.111 183.366 507.846 183.262 508.523H169.141C169.401 509.852 169.967 510.867 170.84 511.57C171.712 512.26 172.826 512.605 174.18 512.605C175.065 512.605 175.911 512.417 176.719 512.039C177.539 511.661 178.118 511.18 178.457 510.594L182.852 513.289C182.135 514.591 181.003 515.6 179.453 516.316C177.904 517.033 176.107 517.391 174.062 517.391C171.172 517.391 168.724 516.401 166.719 514.422C164.727 512.43 163.73 509.982 163.73 507.078C163.73 504.227 164.714 501.831 166.68 499.891C168.659 497.938 171.081 496.961 173.945 496.961C176.602 496.961 178.841 497.866 180.664 499.676C182.5 501.486 183.418 503.699 183.418 506.316ZM169.219 504.93H177.773C177.656 503.953 177.201 503.139 176.406 502.488C175.612 501.837 174.694 501.512 173.652 501.512C172.48 501.512 171.517 501.811 170.762 502.41C170.007 503.009 169.492 503.849 169.219 504.93ZM195.742 496.961C197.161 496.961 198.496 497.221 199.746 497.742C201.009 498.263 202.09 498.979 202.988 499.891C203.9 500.789 204.616 501.876 205.137 503.152C205.671 504.415 205.938 505.763 205.938 507.195C205.938 509.109 205.488 510.848 204.59 512.41C203.704 513.973 202.48 515.197 200.918 516.082C199.368 516.954 197.643 517.391 195.742 517.391C192.839 517.391 190.41 516.421 188.457 514.48C186.504 512.54 185.527 510.112 185.527 507.195C185.527 504.279 186.504 501.844 188.457 499.891C190.41 497.938 192.839 496.961 195.742 496.961ZM195.742 502.352C194.401 502.352 193.281 502.814 192.383 503.738C191.497 504.65 191.055 505.802 191.055 507.195C191.055 508.549 191.497 509.689 192.383 510.613C193.281 511.538 194.401 512 195.742 512C197.057 512 198.164 511.538 199.062 510.613C199.961 509.689 200.41 508.549 200.41 507.195C200.41 505.802 199.961 504.65 199.062 503.738C198.177 502.814 197.07 502.352 195.742 502.352ZM209.238 517V488.992H219.746C222.155 488.992 224.212 489.728 225.918 491.199C227.624 492.658 228.477 494.402 228.477 496.434C228.477 497.697 228.105 498.882 227.363 499.988C226.634 501.082 225.71 501.818 224.59 502.195C226.087 502.495 227.318 503.276 228.281 504.539C229.258 505.802 229.746 507.286 229.746 508.992C229.746 511.232 228.887 513.126 227.168 514.676C225.449 516.225 223.379 517 220.957 517H209.238ZM215.156 500.281H219.473C220.306 500.281 221.009 500.008 221.582 499.461C222.168 498.901 222.461 498.23 222.461 497.449C222.461 496.668 222.174 496.01 221.602 495.477C221.029 494.943 220.319 494.676 219.473 494.676H215.156V500.281ZM215.156 511.316H220.43C221.341 511.316 222.116 511.004 222.754 510.379C223.392 509.741 223.711 508.973 223.711 508.074C223.711 507.176 223.392 506.408 222.754 505.77C222.129 505.118 221.38 504.793 220.508 504.793H215.156V511.316ZM242.031 496.961C243.451 496.961 244.785 497.221 246.035 497.742C247.298 498.263 248.379 498.979 249.277 499.891C250.189 500.789 250.905 501.876 251.426 503.152C251.96 504.415 252.227 505.763 252.227 507.195C252.227 509.109 251.777 510.848 250.879 512.41C249.993 513.973 248.77 515.197 247.207 516.082C245.658 516.954 243.932 517.391 242.031 517.391C239.128 517.391 236.699 516.421 234.746 514.48C232.793 512.54 231.816 510.112 231.816 507.195C231.816 504.279 232.793 501.844 234.746 499.891C236.699 497.938 239.128 496.961 242.031 496.961ZM242.031 502.352C240.69 502.352 239.57 502.814 238.672 503.738C237.786 504.65 237.344 505.802 237.344 507.195C237.344 508.549 237.786 509.689 238.672 510.613C239.57 511.538 240.69 512 242.031 512C243.346 512 244.453 511.538 245.352 510.613C246.25 509.689 246.699 508.549 246.699 507.195C246.699 505.802 246.25 504.65 245.352 503.738C244.466 502.814 243.359 502.352 242.031 502.352ZM273.438 517H266.641L262.91 511.688L259.199 517H252.48L259.551 506.883L252.91 497.352H259.707L262.949 502L266.23 497.352H272.949L266.309 506.844L273.438 517Z" fill="black"/>
<path d="M138.633 526.641C139.336 526.641 140.031 526.784 140.719 527.07C141.411 527.352 141.938 527.714 142.297 528.156L141.383 529.359C141.034 528.979 140.602 528.68 140.086 528.461C139.576 528.237 139.052 528.125 138.516 528.125C137.922 528.125 137.435 528.266 137.055 528.547C136.674 528.828 136.484 529.19 136.484 529.633C136.484 529.919 136.555 530.172 136.695 530.391C136.836 530.604 137.023 530.781 137.258 530.922C137.497 531.057 137.768 531.18 138.07 531.289C138.378 531.393 138.701 531.495 139.039 531.594C139.383 531.688 139.724 531.789 140.062 531.898C140.401 532.008 140.721 532.143 141.023 532.305C141.331 532.466 141.602 532.656 141.836 532.875C142.076 533.089 142.266 533.365 142.406 533.703C142.547 534.036 142.617 534.419 142.617 534.852C142.617 535.294 142.523 535.716 142.336 536.117C142.154 536.518 141.896 536.87 141.562 537.172C141.234 537.474 140.823 537.714 140.328 537.891C139.833 538.068 139.294 538.156 138.711 538.156C137.888 538.156 137.094 537.992 136.328 537.664C135.562 537.336 134.927 536.909 134.422 536.383L135.398 535.234C136.419 536.193 137.523 536.672 138.711 536.672C139.393 536.672 139.951 536.505 140.383 536.172C140.815 535.833 141.031 535.398 141.031 534.867C141.031 534.591 140.961 534.349 140.82 534.141C140.685 533.932 140.497 533.766 140.258 533.641C140.023 533.51 139.753 533.396 139.445 533.297C139.143 533.193 138.823 533.096 138.484 533.008C138.151 532.914 137.815 532.815 137.477 532.711C137.143 532.602 136.823 532.466 136.516 532.305C136.214 532.143 135.943 531.956 135.703 531.742C135.469 531.529 135.281 531.253 135.141 530.914C135.005 530.57 134.938 530.18 134.938 529.742C134.938 528.852 135.286 528.112 135.984 527.523C136.682 526.935 137.565 526.641 138.633 526.641ZM151.562 533.758C151.562 533.904 151.552 534.107 151.531 534.367H145.289C145.357 535.117 145.628 535.716 146.102 536.164C146.581 536.607 147.18 536.828 147.898 536.828C148.393 536.828 148.846 536.724 149.258 536.516C149.669 536.307 149.974 536.029 150.172 535.68L151.352 536.445C151.055 536.977 150.596 537.396 149.977 537.703C149.357 538.005 148.648 538.156 147.852 538.156C147.305 538.156 146.784 538.052 146.289 537.844C145.794 537.635 145.367 537.352 145.008 536.992C144.654 536.628 144.372 536.193 144.164 535.688C143.956 535.177 143.852 534.635 143.852 534.062C143.852 533.323 144.026 532.646 144.375 532.031C144.724 531.411 145.203 530.924 145.812 530.57C146.427 530.211 147.102 530.031 147.836 530.031C148.883 530.031 149.766 530.391 150.484 531.109C151.203 531.828 151.562 532.711 151.562 533.758ZM145.352 533.25H150.039C149.992 532.667 149.758 532.19 149.336 531.82C148.914 531.451 148.393 531.266 147.773 531.266C147.159 531.266 146.635 531.445 146.203 531.805C145.771 532.164 145.487 532.646 145.352 533.25ZM160.188 536.078C159.88 536.714 159.409 537.219 158.773 537.594C158.143 537.969 157.43 538.156 156.633 538.156C155.883 538.156 155.198 537.979 154.578 537.625C153.958 537.271 153.471 536.784 153.117 536.164C152.763 535.544 152.586 534.859 152.586 534.109C152.586 533.354 152.763 532.664 153.117 532.039C153.471 531.414 153.958 530.924 154.578 530.57C155.198 530.211 155.883 530.031 156.633 530.031C157.383 530.031 158.055 530.206 158.648 530.555C159.247 530.898 159.685 531.359 159.961 531.938L158.695 532.625C158.534 532.266 158.266 531.979 157.891 531.766C157.521 531.547 157.102 531.438 156.633 531.438C155.893 531.438 155.273 531.695 154.773 532.211C154.273 532.721 154.023 533.354 154.023 534.109C154.023 534.854 154.273 535.482 154.773 535.992C155.273 536.497 155.893 536.75 156.633 536.75C157.138 536.75 157.591 536.638 157.992 536.414C158.393 536.19 158.693 535.88 158.891 535.484L160.188 536.078ZM167.367 530.195H168.844V538H167.367V536.867C167.128 537.258 166.776 537.57 166.312 537.805C165.849 538.039 165.349 538.156 164.812 538.156C163.844 538.156 163.068 537.839 162.484 537.203C161.901 536.568 161.609 535.724 161.609 534.672V530.195H163.102V534.445C163.102 535.133 163.286 535.682 163.656 536.094C164.031 536.5 164.529 536.703 165.148 536.703C165.607 536.703 166.036 536.591 166.438 536.367C166.844 536.138 167.154 535.833 167.367 535.453V530.195ZM174.445 530.031C174.716 530.031 175.003 530.073 175.305 530.156L175.227 531.555C174.956 531.456 174.661 531.406 174.344 531.406C174.005 531.406 173.651 531.534 173.281 531.789C172.917 532.039 172.622 532.375 172.398 532.797V538H170.906V530.195H172.398V531.328C172.612 530.943 172.911 530.63 173.297 530.391C173.682 530.151 174.065 530.031 174.445 530.031ZM183.359 533.758C183.359 533.904 183.349 534.107 183.328 534.367H177.086C177.154 535.117 177.424 535.716 177.898 536.164C178.378 536.607 178.977 536.828 179.695 536.828C180.19 536.828 180.643 536.724 181.055 536.516C181.466 536.307 181.771 536.029 181.969 535.68L183.148 536.445C182.852 536.977 182.393 537.396 181.773 537.703C181.154 538.005 180.445 538.156 179.648 538.156C179.102 538.156 178.581 538.052 178.086 537.844C177.591 537.635 177.164 537.352 176.805 536.992C176.451 536.628 176.169 536.193 175.961 535.688C175.753 535.177 175.648 534.635 175.648 534.062C175.648 533.323 175.823 532.646 176.172 532.031C176.521 531.411 177 530.924 177.609 530.57C178.224 530.211 178.898 530.031 179.633 530.031C180.68 530.031 181.562 530.391 182.281 531.109C183 531.828 183.359 532.711 183.359 533.758ZM177.148 533.25H181.836C181.789 532.667 181.555 532.19 181.133 531.82C180.711 531.451 180.19 531.266 179.57 531.266C178.956 531.266 178.432 531.445 178 531.805C177.568 532.164 177.284 532.646 177.148 533.25ZM185.789 538.156C185.477 538.156 185.216 538.055 185.008 537.852C184.805 537.648 184.703 537.393 184.703 537.086C184.703 536.789 184.805 536.536 185.008 536.328C185.216 536.12 185.477 536.016 185.789 536.016C186.091 536.016 186.346 536.12 186.555 536.328C186.768 536.536 186.875 536.789 186.875 537.086C186.875 537.388 186.771 537.643 186.562 537.852C186.354 538.055 186.096 538.156 185.789 538.156ZM192.594 526.797H199.031V528.273H194.148V531.523H198.5V532.992H194.148V538H192.594V526.797ZM206.109 530.195H207.602V538H206.109V536.867C205.891 537.237 205.536 537.544 205.047 537.789C204.557 538.034 204.042 538.156 203.5 538.156C202.792 538.156 202.146 537.979 201.562 537.625C200.979 537.266 200.521 536.776 200.188 536.156C199.859 535.531 199.695 534.844 199.695 534.094C199.695 533.344 199.859 532.659 200.188 532.039C200.521 531.414 200.979 530.924 201.562 530.57C202.146 530.211 202.792 530.031 203.5 530.031C204.047 530.031 204.565 530.156 205.055 530.406C205.549 530.651 205.901 530.958 206.109 531.328V530.195ZM203.789 536.766C204.268 536.766 204.721 536.646 205.148 536.406C205.581 536.161 205.901 535.849 206.109 535.469V532.734C205.901 532.349 205.581 532.034 205.148 531.789C204.721 531.544 204.268 531.422 203.789 531.422C203.034 531.422 202.401 531.677 201.891 532.188C201.385 532.693 201.133 533.328 201.133 534.094C201.133 534.854 201.385 535.49 201.891 536C202.401 536.51 203.034 536.766 203.789 536.766ZM212.359 538.156C211.75 538.156 211.148 538.055 210.555 537.852C209.966 537.648 209.484 537.378 209.109 537.039L209.719 535.938C210.021 536.229 210.419 536.469 210.914 536.656C211.409 536.839 211.885 536.93 212.344 536.93C212.792 536.93 213.156 536.831 213.438 536.633C213.724 536.43 213.867 536.177 213.867 535.875C213.867 535.641 213.784 535.445 213.617 535.289C213.451 535.133 213.234 535.013 212.969 534.93C212.703 534.841 212.409 534.763 212.086 534.695C211.768 534.622 211.448 534.536 211.125 534.438C210.807 534.333 210.516 534.208 210.25 534.062C209.984 533.911 209.768 533.698 209.602 533.422C209.435 533.141 209.352 532.805 209.352 532.414C209.352 531.706 209.625 531.133 210.172 530.695C210.719 530.253 211.432 530.031 212.312 530.031C212.859 530.031 213.385 530.117 213.891 530.289C214.401 530.461 214.82 530.706 215.148 531.023L214.508 532.141C214.237 531.875 213.875 531.667 213.422 531.516C212.969 531.359 212.552 531.281 212.172 531.281C211.766 531.281 211.44 531.375 211.195 531.562C210.951 531.745 210.828 531.987 210.828 532.289C210.828 532.503 210.911 532.682 211.078 532.828C211.245 532.969 211.461 533.083 211.727 533.172C211.992 533.255 212.284 533.336 212.602 533.414C212.924 533.487 213.247 533.581 213.57 533.695C213.893 533.805 214.188 533.94 214.453 534.102C214.719 534.263 214.935 534.49 215.102 534.781C215.268 535.073 215.352 535.419 215.352 535.82C215.352 536.497 215.073 537.057 214.516 537.5C213.958 537.938 213.24 538.156 212.359 538.156ZM221.039 536.641L221.117 537.938C220.867 538.042 220.586 538.094 220.273 538.094C219.43 538.094 218.747 537.839 218.227 537.328C217.711 536.812 217.453 536.099 217.453 535.188V531.602H215.938V530.195H217.453V528.078H218.93V530.195H221.039V531.602H218.93V535.117C218.93 535.612 219.073 536.003 219.359 536.289C219.646 536.576 220.013 536.719 220.461 536.719C220.674 536.719 220.867 536.693 221.039 536.641ZM223.523 538.156C223.211 538.156 222.951 538.055 222.742 537.852C222.539 537.648 222.438 537.393 222.438 537.086C222.438 536.789 222.539 536.536 222.742 536.328C222.951 536.12 223.211 536.016 223.523 536.016C223.826 536.016 224.081 536.12 224.289 536.328C224.503 536.536 224.609 536.789 224.609 537.086C224.609 537.388 224.505 537.643 224.297 537.852C224.089 538.055 223.831 538.156 223.523 538.156ZM233.789 526.641C234.492 526.641 235.188 526.784 235.875 527.07C236.568 527.352 237.094 527.714 237.453 528.156L236.539 529.359C236.19 528.979 235.758 528.68 235.242 528.461C234.732 528.237 234.208 528.125 233.672 528.125C233.078 528.125 232.591 528.266 232.211 528.547C231.831 528.828 231.641 529.19 231.641 529.633C231.641 529.919 231.711 530.172 231.852 530.391C231.992 530.604 232.18 530.781 232.414 530.922C232.654 531.057 232.924 531.18 233.227 531.289C233.534 531.393 233.857 531.495 234.195 531.594C234.539 531.688 234.88 531.789 235.219 531.898C235.557 532.008 235.878 532.143 236.18 532.305C236.487 532.466 236.758 532.656 236.992 532.875C237.232 533.089 237.422 533.365 237.562 533.703C237.703 534.036 237.773 534.419 237.773 534.852C237.773 535.294 237.68 535.716 237.492 536.117C237.31 536.518 237.052 536.87 236.719 537.172C236.391 537.474 235.979 537.714 235.484 537.891C234.99 538.068 234.451 538.156 233.867 538.156C233.044 538.156 232.25 537.992 231.484 537.664C230.719 537.336 230.083 536.909 229.578 536.383L230.555 535.234C231.576 536.193 232.68 536.672 233.867 536.672C234.549 536.672 235.107 536.505 235.539 536.172C235.971 535.833 236.188 535.398 236.188 534.867C236.188 534.591 236.117 534.349 235.977 534.141C235.841 533.932 235.654 533.766 235.414 533.641C235.18 533.51 234.909 533.396 234.602 533.297C234.299 533.193 233.979 533.096 233.641 533.008C233.307 532.914 232.971 532.815 232.633 532.711C232.299 532.602 231.979 532.466 231.672 532.305C231.37 532.143 231.099 531.956 230.859 531.742C230.625 531.529 230.438 531.253 230.297 530.914C230.161 530.57 230.094 530.18 230.094 529.742C230.094 528.852 230.443 528.112 231.141 527.523C231.839 526.935 232.721 526.641 233.789 526.641ZM248.492 530.031C249.451 530.031 250.221 530.326 250.805 530.914C251.388 531.503 251.68 532.292 251.68 533.281V538H250.203V533.539C250.203 532.883 250.029 532.365 249.68 531.984C249.331 531.599 248.857 531.406 248.258 531.406C247.862 531.406 247.474 531.526 247.094 531.766C246.719 532 246.427 532.292 246.219 532.641C246.25 532.771 246.273 532.924 246.289 533.102V538H244.812V533.539C244.812 532.888 244.635 532.37 244.281 531.984C243.932 531.599 243.469 531.406 242.891 531.406C242.458 531.406 242.068 531.518 241.719 531.742C241.37 531.961 241.102 532.255 240.914 532.625V538H239.422V530.195H240.914V531.297C241.148 530.953 241.469 530.656 241.875 530.406C242.286 530.156 242.781 530.031 243.359 530.031C244.521 530.031 245.346 530.495 245.836 531.422C246.133 531.026 246.51 530.695 246.969 530.43C247.432 530.164 247.94 530.031 248.492 530.031ZM259.734 530.195H261.227V538H259.734V536.867C259.516 537.237 259.161 537.544 258.672 537.789C258.182 538.034 257.667 538.156 257.125 538.156C256.417 538.156 255.771 537.979 255.188 537.625C254.604 537.266 254.146 536.776 253.812 536.156C253.484 535.531 253.32 534.844 253.32 534.094C253.32 533.344 253.484 532.659 253.812 532.039C254.146 531.414 254.604 530.924 255.188 530.57C255.771 530.211 256.417 530.031 257.125 530.031C257.672 530.031 258.19 530.156 258.68 530.406C259.174 530.651 259.526 530.958 259.734 531.328V530.195ZM257.414 536.766C257.893 536.766 258.346 536.646 258.773 536.406C259.206 536.161 259.526 535.849 259.734 535.469V532.734C259.526 532.349 259.206 532.034 258.773 531.789C258.346 531.544 257.893 531.422 257.414 531.422C256.659 531.422 256.026 531.677 255.516 532.188C255.01 532.693 254.758 533.328 254.758 534.094C254.758 534.854 255.01 535.49 255.516 536C256.026 536.51 256.659 536.766 257.414 536.766ZM266.805 530.031C267.076 530.031 267.362 530.073 267.664 530.156L267.586 531.555C267.315 531.456 267.021 531.406 266.703 531.406C266.365 531.406 266.01 531.534 265.641 531.789C265.276 532.039 264.982 532.375 264.758 532.797V538H263.266V530.195H264.758V531.328C264.971 530.943 265.271 530.63 265.656 530.391C266.042 530.151 266.424 530.031 266.805 530.031ZM273.398 536.641L273.477 537.938C273.227 538.042 272.945 538.094 272.633 538.094C271.789 538.094 271.107 537.839 270.586 537.328C270.07 536.812 269.812 536.099 269.812 535.188V531.602H268.297V530.195H269.812V528.078H271.289V530.195H273.398V531.602H271.289V535.117C271.289 535.612 271.432 536.003 271.719 536.289C272.005 536.576 272.372 536.719 272.82 536.719C273.034 536.719 273.227 536.693 273.398 536.641Z" fill="#505050"/>
<defs>
<linearGradient id="paint0_linear_802_1393" x1="214" y1="0" x2="214" y2="926" gradientUnits="userSpaceOnUse">
<stop stop-color="white"/>
<stop offset="1" stop-color="#E2E8FF"/>
</linearGradient>
</defs>
</svg>
