<svg width="24" height="24" viewBox="0 0 24 24" fill="none" xmlns="http://www.w3.org/2000/svg">
<path id="Vector" d="M21.8571 14.1429H14.5714C14.3348 14.1429 14.1429 14.3348 14.1429 14.5714V21.8571C14.1429 23.0405 13.1834 24 12 24C10.8166 24 9.85714 23.0405 9.85714 21.8571V14.5714C9.85714 14.3348 9.66525 14.1429 9.42857 14.1429H2.14286C0.959473 14.1429 0 13.1834 0 12C0 10.8166 0.959473 9.85714 2.14286 9.85714H9.42857C9.66525 9.85714 9.85714 9.66525 9.85714 9.42857V2.14286C9.85714 0.959473 10.8166 0 12 0C13.1834 0 14.1429 0.959473 14.1429 2.14286V9.42857C14.1429 9.66525 14.3348 9.85714 14.5714 9.85714H21.8571C23.0405 9.85714 24 10.8166 24 12C24 13.1834 23.0405 14.1429 21.8571 14.1429Z" fill="white"/>
</svg>
