<svg width="24" height="24" viewBox="0 0 24 24" fill="none" xmlns="http://www.w3.org/2000/svg">
<g id="cellphone 1">
<path id="Vector" d="M13.6406 9.44063C13.6406 8.53599 12.9046 7.8 12 7.8C11.0954 7.8 10.3594 8.53599 10.3594 9.44063C10.3594 10.3453 11.0954 11.0813 12 11.0813C12.9046 11.0813 13.6406 10.3453 13.6406 9.44063Z" fill="#59D3CD"/>
<path id="Vector_2" d="M19.2656 17.9062V4.97812C19.2656 3.55654 18.1091 2.39999 16.6875 2.39999H7.3125C5.89092 2.39999 4.73438 3.55654 4.73438 4.97812V17.9062H19.2656ZM8.25 8.82187H9.03591C9.11203 8.50106 9.23855 8.1996 9.40739 7.92674L8.85117 7.37053C8.57658 7.09593 8.57658 6.65076 8.85117 6.37617C9.12572 6.10157 9.57094 6.10157 9.84553 6.37617L10.4018 6.93238C10.6746 6.76354 10.9761 6.63702 11.2969 6.5609V5.77499C11.2969 5.38668 11.6117 5.07187 12 5.07187C12.3883 5.07187 12.7031 5.38668 12.7031 5.77499V6.5609C13.0239 6.63702 13.3254 6.76354 13.5983 6.93238L14.1545 6.37617C14.429 6.10157 14.8742 6.10157 15.1488 6.37617C15.4234 6.65076 15.4234 7.09593 15.1488 7.37053L14.5926 7.92674C14.7615 8.1996 14.888 8.50106 14.9641 8.82187H15.75C16.1383 8.82187 16.4531 9.13668 16.4531 9.52499C16.4531 9.91331 16.1383 10.2281 15.75 10.2281H14.9641C14.888 10.5489 14.7615 10.8504 14.5926 11.1232L15.1488 11.6795C15.4234 11.9541 15.4234 12.3992 15.1488 12.6738C15.0115 12.8111 14.8316 12.8798 14.6517 12.8798C14.4718 12.8798 14.2918 12.8112 14.1545 12.6738L13.5983 12.1176C13.3254 12.2864 13.024 12.413 12.7032 12.4891V13.275C12.7032 13.6633 12.3884 13.9781 12 13.9781C11.6117 13.9781 11.2969 13.6633 11.2969 13.275V12.4891C10.9761 12.413 10.6747 12.2864 10.4018 12.1176L9.84558 12.6738C9.70828 12.8111 9.52833 12.8798 9.34842 12.8798C9.16852 12.8798 8.98852 12.8112 8.85127 12.6738C8.57667 12.3992 8.57667 11.9541 8.85127 11.6795L9.40748 11.1232C9.23864 10.8504 9.11213 10.5489 9.036 10.2281H8.25C7.86169 10.2281 7.54688 9.91331 7.54688 9.52499C7.54688 9.13668 7.86169 8.82187 8.25 8.82187Z" fill="#59D3CD"/>
<path id="Vector_3" d="M4.73438 19.3125V21.4219C4.73438 22.8435 5.89092 24 7.3125 24H16.6875C18.1091 24 19.2656 22.8435 19.2656 21.4219V19.3125H4.73438ZM12.9375 22.3594H11.0625C10.6742 22.3594 10.3594 22.0446 10.3594 21.6562C10.3594 21.2679 10.6742 20.9531 11.0625 20.9531H12.9375C13.3258 20.9531 13.6406 21.2679 13.6406 21.6562C13.6406 22.0446 13.3258 22.3594 12.9375 22.3594Z" fill="#59D3CD"/>
</g>
</svg>
