<svg width="41" height="36" viewBox="0 0 41 36" fill="none" xmlns="http://www.w3.org/2000/svg">
<g id="Group 8">
<path id="Vector" d="M37.3421 36H3.39474C2.4944 36 1.63093 35.6353 0.994295 34.9861C0.357659 34.337 0 33.4565 0 32.5385V3.46154C0 2.54348 0.357659 1.66303 0.994295 1.01386C1.63093 0.364697 2.4944 0 3.39474 0H16.5867C17.487 0.000196053 18.3503 0.365021 18.9868 1.01423L22.0896 4.17808C22.726 4.82729 23.5894 5.19211 24.4896 5.19231H37.3421C38.2424 5.19231 39.1059 5.557 39.7425 6.20617C40.3792 6.85533 40.7368 7.73579 40.7368 8.65385V32.5385C40.7368 33.4565 40.3792 34.337 39.7425 34.9861C39.1059 35.6353 38.2424 36 37.3421 36Z" fill="#F0C419"/>
<path id="Vector_2" d="M2 7H36.6875C37.3008 7 37.889 7.24583 38.3227 7.68342C38.7564 8.121 39 8.71449 39 9.33333V31.6667C39 32.2855 38.7564 32.879 38.3227 33.3166C37.889 33.7542 37.3008 34 36.6875 34H4.3125C3.69919 34 3.11099 33.7542 2.67732 33.3166C2.24364 32.879 2 32.2855 2 31.6667V7Z" fill="#F29C1F"/>
<path id="Shape" d="M20.9893 24C21.5415 24 21.9893 23.7375 21.9893 23.4138V7.58621C21.9893 7.26245 21.5415 7 20.9893 7C20.437 7 19.9893 7.26245 19.9893 7.58621V23.4138C19.9893 23.7375 20.437 24 20.9893 24Z" fill="#505050"/>
<g id="Group">
<path id="Shape_2" d="M22.7067 10.4241H23.2774C23.5926 10.4241 23.8481 10.1686 23.8481 9.85343C23.8481 9.53825 23.5926 9.28275 23.2774 9.28275H22.7067C22.3915 9.28275 22.136 9.53825 22.136 9.85343C22.136 10.1686 22.3915 10.4241 22.7067 10.4241Z" fill="#545454"/>
<path id="Shape_3" d="M22.7067 12.7068H23.2774C23.5926 12.7068 23.8481 12.4513 23.8481 12.1361C23.8481 11.821 23.5926 11.5655 23.2774 11.5655H22.7067C22.3915 11.5655 22.136 11.821 22.136 12.1361C22.136 12.4513 22.3915 12.7068 22.7067 12.7068Z" fill="#545454"/>
<path id="Shape_4" d="M22.7067 14.9896H23.2774C23.5926 14.9896 23.8481 14.7341 23.8481 14.4189C23.8481 14.1037 23.5926 13.8482 23.2774 13.8482H22.7067C22.3915 13.8482 22.136 14.1037 22.136 14.4189C22.136 14.7341 22.3915 14.9896 22.7067 14.9896Z" fill="#545454"/>
<path id="Shape_5" d="M22.7067 17.2723H23.2774C23.5926 17.2723 23.8481 17.0168 23.8481 16.7016C23.8481 16.3864 23.5926 16.1309 23.2774 16.1309H22.7067C22.3915 16.1309 22.136 16.3864 22.136 16.7016C22.136 17.0168 22.3915 17.2723 22.7067 17.2723Z" fill="#545454"/>
<path id="Shape_6" d="M22.7067 19.555H23.2774C23.5926 19.555 23.8481 19.2995 23.8481 18.9843C23.8481 18.6692 23.5926 18.4137 23.2774 18.4137H22.7067C22.3915 18.4137 22.136 18.6692 22.136 18.9843C22.136 19.2995 22.3915 19.555 22.7067 19.555Z" fill="#545454"/>
<path id="Shape_7" d="M22.7067 21.8377H23.2774C23.5926 21.8377 23.8481 21.5822 23.8481 21.267C23.8481 20.9519 23.5926 20.6964 23.2774 20.6964H22.7067C22.3915 20.6964 22.136 20.9519 22.136 21.267C22.136 21.5822 22.3915 21.8377 22.7067 21.8377Z" fill="#545454"/>
<path id="Shape_8" d="M18.7119 11.5655H19.2826C19.5977 11.5655 19.8532 11.31 19.8532 10.9948C19.8532 10.6796 19.5977 10.4241 19.2826 10.4241H18.7119C18.3967 10.4241 18.1412 10.6796 18.1412 10.9948C18.1412 11.31 18.3967 11.5655 18.7119 11.5655Z" fill="#545454"/>
<path id="Shape_9" d="M18.7119 13.8482H19.2826C19.5977 13.8482 19.8532 13.5927 19.8532 13.2775C19.8532 12.9623 19.5977 12.7068 19.2826 12.7068H18.7119C18.3967 12.7068 18.1412 12.9623 18.1412 13.2775C18.1412 13.5927 18.3967 13.8482 18.7119 13.8482Z" fill="#545454"/>
<path id="Shape_10" d="M18.7119 16.1309H19.2826C19.5977 16.1309 19.8532 15.8754 19.8532 15.5602C19.8532 15.2451 19.5977 14.9896 19.2826 14.9896H18.7119C18.3967 14.9896 18.1412 15.2451 18.1412 15.5602C18.1412 15.8754 18.3967 16.1309 18.7119 16.1309Z" fill="#545454"/>
<path id="Shape_11" d="M18.7119 18.4136H19.2826C19.5977 18.4136 19.8532 18.1581 19.8532 17.843C19.8532 17.5278 19.5977 17.2723 19.2826 17.2723H18.7119C18.3967 17.2723 18.1412 17.5278 18.1412 17.843C18.1412 18.1581 18.3967 18.4136 18.7119 18.4136Z" fill="#545454"/>
<path id="Shape_12" d="M18.7119 20.6964H19.2826C19.5977 20.6964 19.8532 20.4409 19.8532 20.1257C19.8532 19.8105 19.5977 19.555 19.2826 19.555H18.7119C18.3967 19.555 18.1412 19.8105 18.1412 20.1257C18.1412 20.4409 18.3967 20.6964 18.7119 20.6964Z" fill="#545454"/>
<path id="Shape_13" d="M19.2826 26.4032L17.0877 31.6711C16.941 32.0234 16.98 32.4256 17.1917 32.7431C17.4033 33.0606 17.7597 33.2513 18.1412 33.2514H23.848C24.2296 33.2513 24.5859 33.0606 24.7976 32.7431C25.0092 32.4256 25.0482 32.0234 24.9015 31.6711L22.7067 26.4032H19.2826Z" fill="#545454"/>
</g>
<path id="Rectangle-path" d="M19.4893 23H22.4893C22.7654 23 22.9893 23.2239 22.9893 23.5V25.5C22.9893 25.7761 22.7654 26 22.4893 26H19.4893C19.2131 26 18.9893 25.7761 18.9893 25.5V23.5C18.9893 23.2239 19.2131 23 19.4893 23Z" fill="#505050"/>
</g>
</svg>
