<svg width="22" height="24" viewBox="0 0 22 24" fill="none" xmlns="http://www.w3.org/2000/svg">
<g id="Iconly/Bold/Home">
<g id="Home">
<path id="Vector" d="M7.68237 22.5797V19.0391C7.68237 18.1353 8.42041 17.4027 9.33082 17.4027H12.6588C13.096 17.4027 13.5153 17.5751 13.8244 17.882C14.1336 18.1889 14.3073 18.6051 14.3073 19.0391V22.5797C14.3045 22.9554 14.4529 23.3167 14.7196 23.5834C14.9863 23.85 15.3491 24 15.7276 24H17.9981C19.0585 24.0027 20.0765 23.5864 20.8272 22.843C21.578 22.0996 22 21.0902 22 20.0375V9.9511C22 9.10074 21.6203 8.29413 20.9632 7.74856L13.2394 1.62469C11.8958 0.550963 9.97076 0.585631 8.66729 1.70703L1.1197 7.74856C0.431594 8.27805 0.0203237 9.08705 0 9.9511V20.0272C0 22.2213 1.7917 24 4.00188 24H6.22055C7.00668 24 7.64558 23.3703 7.65127 22.5899L7.68237 22.5797Z" fill="#263238"/>
</g>
</g>
</svg>
