<svg width="27" height="23" viewBox="0 0 27 23" fill="none" xmlns="http://www.w3.org/2000/svg">
<path id="Vector" d="M16.7291 16.375C17.2401 16.375 17.7395 16.2235 18.1644 15.9396C18.5892 15.6558 18.9203 15.2523 19.1158 14.7803C19.3113 14.3082 19.3625 13.7888 19.2628 13.2877C19.1631 12.7866 18.9171 12.3262 18.5558 11.965C18.1945 11.6037 17.7342 11.3576 17.2331 11.258C16.732 11.1583 16.2126 11.2094 15.7405 11.405C15.2685 11.6005 14.865 11.9316 14.5812 12.3564C14.2973 12.7813 14.1458 13.2807 14.1458 13.7917L11.6916 14.9154C11.2699 14.6375 10.7759 14.4893 10.2708 14.4892C9.58565 14.4892 8.92857 14.7613 8.44411 15.2458C7.95964 15.7303 7.68746 16.3873 7.68746 17.0725C7.68746 17.7576 7.95964 18.4147 8.44411 18.8992C8.92857 19.3836 9.58565 19.6558 10.2708 19.6558C10.6869 19.656 11.0961 19.5493 11.4591 19.3458L14.1716 20.6375C14.237 21.202 14.4867 21.7292 14.882 22.1374C15.2774 22.5456 15.7963 22.8121 16.3584 22.8956C16.9205 22.979 17.4944 22.8748 17.9913 22.5991C18.4882 22.3233 18.8803 21.8914 19.1069 21.3703C19.3335 20.8491 19.3819 20.2678 19.2447 19.7164C19.1074 19.1649 18.7922 18.6741 18.3478 18.32C17.9034 17.9658 17.3546 17.7681 16.7864 17.7574C16.2182 17.7467 15.6624 17.9236 15.205 18.2608L12.9445 17.2275L15.4116 16.0908C15.8179 16.3005 16.2726 16.3985 16.7291 16.375ZM21.7925 6.32582C21.0032 4.51233 19.6412 3.00763 17.915 2.0423C16.1888 1.07697 14.1937 0.70427 12.2354 0.981303C10.2771 1.25834 8.46366 2.16982 7.07296 3.57609C5.68226 4.98235 4.79101 6.80582 4.5358 8.76707C3.45366 9.03064 2.48566 9.63684 1.77608 10.4953C1.0665 11.3538 0.65333 12.4186 0.598145 13.531C0.542961 14.6434 0.84872 15.7438 1.46985 16.6683C2.09098 17.5928 2.99423 18.2919 4.04496 18.6612C4.17892 18.7025 4.31813 18.7243 4.4583 18.7258C4.80087 18.7806 5.15118 18.6971 5.43217 18.4936C5.71317 18.2902 5.90182 17.9834 5.95663 17.6408C6.01144 17.2982 5.92792 16.9479 5.72444 16.6669C5.52097 16.386 5.2142 16.1973 4.87163 16.1425C4.38456 15.9667 3.96156 15.6485 3.65753 15.2293C3.3535 14.8101 3.18247 14.3092 3.16663 13.7917C3.16663 13.1065 3.4388 12.4494 3.92327 11.965C4.40774 11.4805 5.06482 11.2083 5.74996 11.2083C6.09253 11.2083 6.42108 11.0722 6.66331 10.83C6.90554 10.5878 7.04163 10.2592 7.04163 9.91665C7.04493 8.38897 7.58967 6.91192 8.57906 5.74791C9.56846 4.5839 10.9384 3.8083 12.4456 3.55891C13.9528 3.30951 15.4996 3.60248 16.8112 4.38575C18.1228 5.16902 19.1143 6.39187 19.6095 7.83707C19.6834 8.05903 19.8161 8.25677 19.9935 8.40919C20.171 8.56161 20.3865 8.66298 20.617 8.70249C21.3938 8.84307 22.109 9.21751 22.6672 9.77571C23.2253 10.3339 23.5996 11.0492 23.7401 11.826C23.8805 12.6027 23.7804 13.4039 23.4531 14.1222C23.1259 14.8405 22.587 15.4417 21.9087 15.8454C21.6107 16.0167 21.3929 16.2994 21.3033 16.6312C21.2136 16.9631 21.2595 17.3169 21.4308 17.615C21.6021 17.913 21.8848 18.1308 22.2166 18.2204C22.5485 18.3101 22.9023 18.2642 23.2004 18.0929C24.1797 17.5244 24.9924 16.7085 25.5569 15.7268C26.1214 14.7452 26.4179 13.6324 26.4166 12.5C26.4127 11.1103 25.9606 9.75899 25.1276 8.6467C24.2945 7.5344 23.1249 6.72048 21.7925 6.32582Z" fill="#263238"/>
</svg>
