<svg width="57" height="50" viewBox="0 0 57 50" fill="none" xmlns="http://www.w3.org/2000/svg">
<g id="Group 7">
<path id="Vector" d="M51.7675 49.9535H4.70614C3.45799 49.9535 2.26097 49.4479 1.3784 48.548C0.495824 47.648 0 46.4274 0 45.1547V4.84526C0 3.57255 0.495824 2.35197 1.3784 1.45203C2.26097 0.55209 3.45799 0.0465088 4.70614 0.0465088H22.9942C24.2422 0.0467806 25.4391 0.55254 26.3214 1.45254L30.6229 5.8386C31.5052 6.7386 32.702 7.24436 33.9501 7.24463H51.7675C53.0157 7.24463 54.2127 7.75021 55.0953 8.65015C55.9779 9.55009 56.4737 10.7707 56.4737 12.0434V45.1547C56.4737 46.4274 55.9779 47.648 55.0953 48.548C54.2127 49.4479 53.0157 49.9535 51.7675 49.9535Z" fill="#3377FF"/>
<path id="Vector_2" d="M2.47363 10H51.2236C52.0856 10 52.9122 10.3369 53.5217 10.9365C54.1312 11.5362 54.4736 12.3495 54.4736 13.1975V43.8025C54.4736 44.6505 54.1312 45.4638 53.5217 46.0635C52.9122 46.6631 52.0856 47 51.2236 47H5.72363C4.86168 47 4.03503 46.6631 3.42554 46.0635C2.81604 45.4638 2.47363 44.6505 2.47363 43.8025V10Z" fill="#C2D6FF"/>
</g>
</svg>
