<svg width="14" height="13" viewBox="0 0 14 13" fill="none" xmlns="http://www.w3.org/2000/svg">
<g id="Group 9">
<path id="Vector" d="M1.05836 10.7205L1.67577 11.7869C1.80406 12.0114 1.98848 12.1878 2.20498 12.3161L4.41002 8.4994H-6.10352e-05C-6.10352e-05 8.74797 0.0640856 8.99654 0.192379 9.22105L1.05836 10.7205Z" fill="#0066DA"/>
<path id="Vector_2" d="M6.99994 4.00914L4.7949 0.192421C4.5784 0.320714 4.39398 0.497117 4.26569 0.721631L0.192379 7.77776C0.0664451 7.99743 0.000106638 8.2462 -6.10352e-05 8.49941H4.41002L6.99994 4.00914Z" fill="#00AC47"/>
<path id="Vector_3" d="M11.7949 12.3161C12.0114 12.1878 12.1958 12.0114 12.3241 11.7869L12.5807 11.3459L13.8075 9.22105C13.9358 8.99654 13.9999 8.74797 13.9999 8.4994H9.58954L10.528 10.3436L11.7949 12.3161Z" fill="#EA4335"/>
<path id="Vector_4" d="M6.99987 4.00915L9.20491 0.192425C8.98842 0.0641314 8.73985 -1.52588e-05 8.48326 -1.52588e-05H5.51648C5.25989 -1.52588e-05 5.01133 0.0721497 4.79483 0.192425L6.99987 4.00915Z" fill="#00832D"/>
<path id="Vector_5" d="M9.58984 8.4994H4.41L2.20496 12.3161C2.42145 12.4444 2.67002 12.5086 2.92661 12.5086H11.0732C11.3298 12.5086 11.5784 12.4364 11.7949 12.3161L9.58984 8.4994Z" fill="#2684FC"/>
<path id="Vector_6" d="M11.7709 4.24969L9.73425 0.721631C9.60596 0.497117 9.42154 0.320714 9.20504 0.192421L7 4.00914L9.58992 8.49941H13.992C13.992 8.25084 13.9278 8.00227 13.7995 7.77776L11.7709 4.24969Z" fill="#FFBA00"/>
</g>
</svg>
