<svg width="156" height="96" viewBox="0 0 156 96" fill="none" xmlns="http://www.w3.org/2000/svg">
<g id="Group 34">
<g id="Group 31">
<path id="Vector" d="M119.282 95.4442C116.228 95.4442 113.753 92.9862 113.753 89.9538C113.753 86.9213 116.228 84.4633 119.282 84.4633C133.43 84.4633 144.941 73.0329 144.941 58.9831C144.941 44.9334 133.929 33.6375 119.871 33.6375H116.244L112.698 25.5277C108.461 16.6882 99.3701 10.9793 89.5124 10.9793C84.0599 10.9793 78.8561 12.6538 74.4604 15.8208C71.99 17.6014 68.533 17.0569 66.7384 14.6022C64.9453 12.1489 65.4952 8.71444 67.9656 6.93389C74.2628 2.39782 81.7123 0 89.514 0C103.657 0 116.697 8.20956 122.735 20.9172L122.807 21.0739L123.579 22.8402C142.033 24.6492 156 39.875 156 58.9863C156 79.0916 139.53 95.4474 119.283 95.4474L119.282 95.4442Z" fill="#5A5FD6"/>
</g>
<path id="Union" fill-rule="evenodd" clip-rule="evenodd" d="M60.9632 24.4469H90.0329C94.4631 24.4469 98.7118 26.2067 101.844 29.3393C104.977 32.4719 106.737 36.7206 106.737 41.1508V78.8666C106.737 83.2968 104.977 87.5455 101.844 90.6781C98.7118 93.8107 94.4631 95.5705 90.0329 95.5705H16.7039C12.2738 95.5705 8.02505 93.8107 4.89246 90.6781C1.75987 87.5455 0 83.2968 0 78.8666V22.8618C0 18.4317 1.75987 14.183 4.89246 11.0504C8.02505 7.91778 12.2738 6.15791 16.7039 6.15791H44.2593C48.6894 6.15791 52.9381 7.91778 56.0707 11.0504C59.2033 14.183 60.9632 18.4317 60.9632 22.8618V24.4469Z" fill="#FFB225"/>
<path id="Vector_2" d="M76.0433 37.4637H33.3691C30.5633 37.4637 28.2888 39.7382 28.2888 42.5439C28.2888 45.3497 30.5633 47.6242 33.3691 47.6242H76.0433C78.849 47.6242 81.1236 45.3497 81.1236 42.5439C81.1236 39.7382 78.849 37.4637 76.0433 37.4637Z" fill="white"/>
</g>
</svg>
