<svg width="23" height="23" viewBox="0 0 23 23" fill="none" xmlns="http://www.w3.org/2000/svg">
<g id="Group">
<path id="Vector" d="M11.812 0C5.63416 0 0.625 5.00916 0.625 11.187C0.625 17.3649 5.63416 22.375 11.812 22.375C17.9899 22.375 23 17.3649 23 11.187C23 5.00916 17.9899 0 11.812 0ZM14.1409 17.3384C13.5651 17.5657 13.1067 17.738 12.7629 17.8574C12.4201 17.9767 12.0213 18.0364 11.5677 18.0364C10.8706 18.0364 10.3279 17.8659 9.94152 17.5259C9.55511 17.1859 9.36285 16.755 9.36285 16.2312C9.36285 16.0276 9.37706 15.8192 9.40547 15.6071C9.43483 15.3949 9.48124 15.1563 9.54469 14.8883L10.2654 12.3425C10.3289 12.0981 10.3838 11.8661 10.4274 11.6502C10.4709 11.4323 10.4918 11.2325 10.4918 11.0506C10.4918 10.7267 10.4245 10.4994 10.291 10.3716C10.1556 10.2437 9.9008 10.1812 9.52102 10.1812C9.33539 10.1812 9.14407 10.2087 8.94803 10.2665C8.75387 10.3261 8.58529 10.3801 8.44702 10.4331L8.63738 9.64895C9.10903 9.45669 9.56079 9.2919 9.99172 9.15552C10.4226 9.01724 10.8299 8.94905 11.2135 8.94905C11.9058 8.94905 12.4399 9.11763 12.8159 9.45101C13.19 9.78533 13.3785 10.22 13.3785 10.7542C13.3785 10.865 13.3653 11.0601 13.3397 11.3386C13.3141 11.618 13.2658 11.8727 13.1957 12.1067L12.4788 14.6449C12.4201 14.8485 12.368 15.0815 12.3206 15.3419C12.2742 15.6024 12.2515 15.8012 12.2515 15.9348C12.2515 16.272 12.3263 16.5021 12.4778 16.6243C12.6275 16.7464 12.8898 16.808 13.2611 16.808C13.4363 16.808 13.6323 16.7768 13.854 16.7161C14.0737 16.6555 14.2328 16.6015 14.3332 16.5551L14.1409 17.3384ZM14.014 7.03593C13.6797 7.34658 13.2772 7.5019 12.8065 7.5019C12.3367 7.5019 11.9314 7.34658 11.5942 7.03593C11.2589 6.72529 11.0894 6.3474 11.0894 5.90605C11.0894 5.46566 11.2599 5.08682 11.5942 4.77333C11.9314 4.4589 12.3367 4.30263 12.8065 4.30263C13.2772 4.30263 13.6806 4.4589 14.014 4.77333C14.3483 5.08682 14.516 5.46566 14.516 5.90605C14.516 6.34834 14.3483 6.72529 14.014 7.03593Z" fill="#FF6558"/>
</g>
</svg>
