<svg width="19" height="22" viewBox="0 0 19 22" fill="none" xmlns="http://www.w3.org/2000/svg">
<g id="Group">
<g id="Group_2">
<path id="Vector" d="M16.0143 7.58095V6.51429C16.0143 2.89524 13.1191 0 9.50005 0C5.881 0 2.98576 2.89524 2.98576 6.51429V7.58095C1.75528 7.58095 0.814331 8.5219 0.814331 9.75238V19.1619C0.814331 20.32 1.75528 21.3333 2.98576 21.3333H16.0143C17.2448 21.3333 18.1858 20.32 18.1858 19.1619V9.75238C18.1858 8.5219 17.2448 7.58095 16.0143 7.58095ZM4.43338 6.51429C4.43338 3.69143 6.67719 1.44762 9.50005 1.44762C12.3229 1.44762 14.5667 3.69143 14.5667 6.51429V7.58095H4.43338V6.51429ZM10.2239 15.3981V16.9905C10.2239 17.4248 9.93433 17.7143 9.50005 17.7143C9.06576 17.7143 8.77624 17.4248 8.77624 16.9905V15.3981C7.90767 15.1086 7.32862 14.3124 7.32862 13.3714C7.32862 12.141 8.26957 11.2 9.50005 11.2C10.7305 11.2 11.6715 12.141 11.6715 13.3714C11.6715 14.3124 11.0924 15.1086 10.2239 15.3981Z" fill="#4285F4"/>
</g>
</g>
</svg>
