<svg width="57" height="50" viewBox="0 0 57 50" fill="none" xmlns="http://www.w3.org/2000/svg">
<g id="Group 10">
<path id="Vector" d="M51.7675 49.907H4.70614C3.45799 49.907 2.26097 49.4014 1.3784 48.5015C0.495824 47.6015 0 46.3809 0 45.1082V4.79875C0 3.52604 0.495824 2.30546 1.3784 1.40552C2.26097 0.505581 3.45799 0 4.70614 0H22.9942C24.2422 0.000271789 25.4391 0.506031 26.3214 1.40603L30.6229 5.79209C31.5052 6.69209 32.702 7.19785 33.9501 7.19812H51.7675C53.0157 7.19812 54.2127 7.7037 55.0953 8.60364C55.9779 9.50358 56.4737 10.7242 56.4737 11.9969V45.1082C56.4737 46.3809 55.9779 47.6015 55.0953 48.5015C54.2127 49.4014 53.0157 49.907 51.7675 49.907Z" fill="#B0B0B0"/>
<path id="Vector_2" d="M2.47363 9.95349H51.2236C52.0856 9.95349 52.9122 10.2904 53.5217 10.89C54.1312 11.4897 54.4736 12.303 54.4736 13.151V43.756C54.4736 44.604 54.1312 45.4173 53.5217 46.017C52.9122 46.6166 52.0856 46.9535 51.2236 46.9535H5.72363C4.86168 46.9535 4.03503 46.6166 3.42554 46.017C2.81604 45.4173 2.47363 44.604 2.47363 43.756V9.95349Z" fill="#EAEAEA"/>
<path id="Vector_3" d="M29.1596 30.7648C28.6461 30.4065 28.0974 30.1146 27.5235 29.8916C28.2869 29.1977 28.7934 28.2256 28.8815 27.1374C30.0392 26.0093 31.5568 25.3909 33.1837 25.3909C34.4537 25.3909 35.6731 25.7733 36.7104 26.4967C37.0821 26.756 37.5932 26.665 37.8524 26.2932C38.1115 25.9217 38.0205 25.4104 37.6489 25.1514C37.1354 24.7931 36.5865 24.5014 36.0126 24.2782C36.855 23.5125 37.3847 22.4085 37.3847 21.1831C37.3847 18.8765 35.5083 17 33.2016 17C30.8951 17 29.0186 18.8765 29.0186 21.1831C29.0186 22.4035 29.544 23.5035 30.3807 24.2689C30.2661 24.313 30.1522 24.3596 30.0394 24.4093C29.5261 24.6352 29.0435 24.913 28.5947 25.2392C27.9758 23.7016 26.4689 22.6134 24.7125 22.6134C22.406 22.6134 20.5294 24.4898 20.5294 26.7963C20.5294 28.0133 21.0518 29.1103 21.884 29.8754C19.6591 30.709 17.855 32.4994 17.1206 34.7828C16.8771 35.54 17.006 36.343 17.4745 36.986C17.943 37.6288 18.6678 37.9974 19.4631 37.9974H26.599C27.052 37.9974 27.4192 37.6302 27.4192 37.1771C27.4192 36.7242 27.052 36.357 26.599 36.357H19.4631C19.198 36.357 18.9564 36.2341 18.8001 36.0197C18.6439 35.8054 18.601 35.5376 18.6821 35.2851C19.4928 32.7646 21.9652 31.0043 24.6945 31.0043C25.9644 31.0043 27.184 31.3867 28.2212 32.1101C28.5928 32.3693 29.104 32.2782 29.3633 31.9066C29.6223 31.5351 29.5313 31.0238 29.1596 30.7648ZM33.2016 18.6405C34.6037 18.6405 35.7443 19.7811 35.7443 21.1831C35.7443 22.585 34.6037 23.7258 33.2016 23.7258C31.7997 23.7258 30.659 22.585 30.659 21.1831C30.659 19.7811 31.7997 18.6405 33.2016 18.6405ZM24.7125 24.2537C26.1145 24.2537 27.2551 25.3944 27.2551 26.7963C27.2551 28.1984 26.1145 29.339 24.7125 29.339C23.3104 29.339 22.1698 28.1984 22.1698 26.7963C22.1698 25.3944 23.3104 24.2537 24.7125 24.2537ZM38 34.1014C38 34.5544 37.6327 34.9216 37.1796 34.9216H34.9241V37.1771C34.9241 37.6302 34.5569 37.9974 34.1039 37.9974C33.6509 37.9974 33.2836 37.6302 33.2836 37.1771V34.9216H31.0281C30.5752 34.9216 30.2079 34.5544 30.2079 34.1014C30.2079 33.6483 30.5752 33.2811 31.0281 33.2811H33.2836V31.0256C33.2836 30.5727 33.6509 30.2054 34.1039 30.2054C34.5569 30.2054 34.9241 30.5727 34.9241 31.0256V33.2811H37.1796C37.6327 33.2811 38 33.6483 38 34.1014Z" fill="#999999" stroke="#999999"/>
</g>
</svg>
