<svg width="20" height="20" viewBox="0 0 20 20" fill="none" xmlns="http://www.w3.org/2000/svg">
<g id="Group">
<g id="Group_2">
<g id="Group_3">
<path id="Vector" d="M16.9753 2.80681C16.2291 2.08325 15.3715 1.47388 14.4303 1.00802C14.8848 1.69865 15.2848 2.49784 15.6173 3.38913C16.0948 3.21792 16.5486 3.02314 16.9753 2.80681Z" fill="#3E4E68"/>
<path id="Vector_2" d="M4.9939 9.30569H9.30538V5.65244C8.0169 5.59648 6.77113 5.41496 5.61049 5.11844C5.26297 6.38777 5.0453 7.80919 4.9939 9.30569Z" fill="#3E4E68"/>
<path id="Vector_3" d="M5.52613 14.5453C6.71247 14.2342 7.9885 14.0422 9.30536 13.9838V10.6944H4.99414C5.0422 12.0603 5.22894 13.363 5.52613 14.5453Z" fill="#3E4E68"/>
<path id="Vector_4" d="M6.03918 3.79743C7.06301 4.05232 8.16367 4.20961 9.30529 4.26195V0.000133514C9.10422 0.0140558 8.9053 0.0338683 8.70771 0.0595709C7.64051 0.706688 6.70585 2.04229 6.03918 3.79743Z" fill="#3E4E68"/>
<path id="Vector_5" d="M2.89465 17.067C3.78969 17.9665 4.85394 18.6967 6.03466 19.2074C5.46278 18.3914 4.97188 17.406 4.5834 16.2892C3.97724 16.5127 3.41138 16.7728 2.89465 17.067Z" fill="#3E4E68"/>
<path id="Vector_6" d="M6.02261 0.797987C4.94912 1.26398 3.97349 1.91244 3.13293 2.70413C3.6166 2.96343 4.13976 3.19128 4.6933 3.39021C5.0601 2.40654 5.50909 1.53439 6.02261 0.797987Z" fill="#3E4E68"/>
<path id="Vector_7" d="M4.26985 4.70947C3.5151 4.44147 2.80989 4.12099 2.16719 3.75125C0.931452 5.29702 0.144042 7.21387 0 9.30569H3.60292C3.65392 7.65122 3.88806 6.09929 4.26985 4.70947Z" fill="#3E4E68"/>
<path id="Vector_8" d="M3.60343 10.6944H0.000244141C0.136388 12.6745 0.84736 14.4994 1.97091 15.9992C2.63958 15.5975 3.38335 15.2482 4.18536 14.9587C3.85484 13.6553 3.65136 12.2187 3.60343 10.6944Z" fill="#3E4E68"/>
<path id="Vector_9" d="M8.73308 19.9442C8.92224 19.9677 9.11287 19.9869 9.30523 20.0001V15.3745C8.12305 15.43 6.98142 15.5995 5.92346 15.8723C6.6003 17.7977 7.59146 19.2647 8.73308 19.9442Z" fill="#3E4E68"/>
<path id="Vector_10" d="M16.1267 14.9532C16.8409 15.2118 17.5106 15.517 18.1231 15.8684C19.1913 14.3935 19.8678 12.6183 20 10.6948H16.7076C16.6598 12.2165 16.457 13.6516 16.1267 14.9532Z" fill="#3E4E68"/>
<path id="Vector_11" d="M14.4192 18.9977C15.466 18.4814 16.409 17.7877 17.2114 16.9562C16.751 16.7087 16.2534 16.4868 15.7261 16.2931C15.3702 17.3141 14.9292 18.2256 14.4192 18.9977Z" fill="#3E4E68"/>
<path id="Vector_12" d="M11.7028 0.120883C11.3716 0.0639889 11.0352 0.0236946 10.6942 0V4.27534C11.9437 4.23853 13.151 4.07293 14.27 3.79382C13.6244 2.09543 12.7277 0.789285 11.7028 0.120883Z" fill="#3E4E68"/>
<path id="Vector_13" d="M16.0403 4.7084C16.4226 6.09822 16.6566 7.65095 16.7076 9.30569H19.9997C19.8598 7.26729 19.1084 5.39555 17.9269 3.87133C17.3432 4.18966 16.712 4.47025 16.0403 4.7084Z" fill="#3E4E68"/>
<path id="Vector_14" d="M10.6942 20C11.0275 19.9774 11.3567 19.9379 11.6806 19.8834C12.7784 19.179 13.7297 17.7412 14.3863 15.8743C13.2333 15.5767 11.9827 15.4 10.6942 15.3612V20Z" fill="#3E4E68"/>
<path id="Vector_15" d="M14.6991 5.11496C13.4429 5.43651 12.0897 5.6254 10.6942 5.66422V9.3057H15.3172C15.2654 7.80825 15.0473 6.38537 14.6991 5.11496Z" fill="#3E4E68"/>
<path id="Vector_16" d="M15.3168 10.6944H10.6942V13.9723C12.1309 14.0109 13.5124 14.2029 14.787 14.5355C15.0831 13.3561 15.2689 12.0568 15.3168 10.6944Z" fill="#3E4E68"/>
</g>
</g>
</g>
</svg>
