<svg width="57" height="50" viewBox="0 0 57 50" fill="none" xmlns="http://www.w3.org/2000/svg">
<g id="Group 16">
<g id="Group 9">
<path id="Vector" d="M51.7675 49.9535H4.70614C3.45799 49.9535 2.26097 49.4479 1.3784 48.548C0.495824 47.648 0 46.4274 0 45.1547V4.84526C0 3.57255 0.495824 2.35197 1.3784 1.45203C2.26097 0.55209 3.45799 0.0465088 4.70614 0.0465088H22.9942C24.2422 0.0467806 25.4391 0.55254 26.3214 1.45254L30.6229 5.8386C31.5052 6.7386 32.702 7.24436 33.9501 7.24463H51.7675C53.0157 7.24463 54.2127 7.75021 55.0953 8.65015C55.9779 9.55009 56.4737 10.7707 56.4737 12.0434V45.1547C56.4737 46.4274 55.9779 47.648 55.0953 48.548C54.2127 49.4479 53.0157 49.9535 51.7675 49.9535Z" fill="#25C8BF"/>
<path id="Vector_2" d="M2.47363 10H51.2236C52.0856 10 52.9122 10.3369 53.5217 10.9365C54.1312 11.5362 54.4736 12.3495 54.4736 13.1975V43.8025C54.4736 44.6505 54.1312 45.4638 53.5217 46.0635C52.9122 46.6631 52.0856 47 51.2236 47H5.72363C4.86168 47 4.03503 46.6631 3.42554 46.0635C2.81604 45.4638 2.47363 44.6505 2.47363 43.8025V10Z" fill="#B9F3F0"/>
</g>
<path id="Vector_3" d="M14.6377 25.0645C11.5867 25.0645 9.10547 22.5833 9.10547 19.5323C9.10547 16.4812 11.5867 14 14.6377 14C17.6888 14 20.17 16.4812 20.17 19.5323C20.17 22.5833 17.6888 25.0645 14.6377 25.0645ZM14.6377 16.7661C13.1136 16.7661 11.8716 18.0081 11.8716 19.5323C11.8716 21.0564 13.1136 22.2984 14.6377 22.2984C16.1619 22.2984 17.4039 21.0564 17.4039 19.5323C17.4039 18.0081 16.1619 16.7661 14.6377 16.7661Z" fill="#25C8BF"/>
<path id="Vector_4" d="M2.38376 47C2.02969 47 1.67563 46.8645 1.40455 46.5961C0.865151 46.0567 0.865151 45.1799 1.40455 44.6405L14.469 31.576C16.0346 30.0104 18.7703 30.0104 20.336 31.576L24.2252 35.4652L34.991 22.5474C35.7738 21.6096 36.9245 21.0647 38.1499 21.0536H38.1803C39.3919 21.0536 40.5398 21.5792 41.3309 22.5003L55.7978 39.3793C56.2957 39.9574 56.2294 40.8315 55.6485 41.3294C55.0703 41.8273 54.199 41.7637 53.6983 41.1801L39.2315 24.3011C38.9631 23.9913 38.5925 23.8198 38.1803 23.8198C37.8926 23.7949 37.3864 23.9941 37.1181 24.3177L25.3814 38.4001C25.1325 38.6988 24.7701 38.8786 24.3801 38.8952C23.9873 38.9229 23.6138 38.768 23.34 38.4914L18.3803 33.5317C17.8575 33.0117 16.9475 33.0117 16.4247 33.5317L3.3602 46.5961C3.09189 46.8645 2.73782 47 2.38376 47Z" fill="#25C8BF"/>
</g>
</svg>
