<svg width="26" height="23" viewBox="0 0 26 23" fill="none" xmlns="http://www.w3.org/2000/svg">
<g id="Layer 2">
<g id="Folder">
<path id="Vector" d="M21.7256 4.68H15.6V4.2744C15.6 3.14076 15.1497 2.05355 14.3481 1.25194C13.5465 0.450337 12.4592 0 11.3256 0L4.2744 0C3.14076 0 2.05355 0.450337 1.25194 1.25194C0.450337 2.05355 0 3.14076 0 4.2744L0 18.6056C0 19.7392 0.450337 20.8265 1.25194 21.6281C2.05355 22.4297 3.14076 22.88 4.2744 22.88H21.7256C22.8592 22.88 23.9465 22.4297 24.7481 21.6281C25.5497 20.8265 26 19.7392 26 18.6056V8.9544C26 7.82076 25.5497 6.73355 24.7481 5.93194C23.9465 5.13034 22.8592 4.68 21.7256 4.68ZM23.4 18.6056C23.4 19.0497 23.2236 19.4756 22.9096 19.7896C22.5956 20.1036 22.1697 20.28 21.7256 20.28H4.2744C3.83032 20.28 3.40443 20.1036 3.09042 19.7896C2.77641 19.4756 2.6 19.0497 2.6 18.6056V4.2744C2.6 3.83032 2.77641 3.40443 3.09042 3.09042C3.40443 2.77641 3.83032 2.6 4.2744 2.6H11.3256C11.7697 2.6 12.1956 2.77641 12.5096 3.09042C12.8236 3.40443 13 3.83032 13 4.2744V4.68H8.58C8.23522 4.68 7.90456 4.81696 7.66076 5.06076C7.41696 5.30456 7.28 5.63522 7.28 5.98C7.28 6.32478 7.41696 6.65544 7.66076 6.89924C7.90456 7.14304 8.23522 7.28 8.58 7.28H21.7256C22.1697 7.28 22.5956 7.45641 22.9096 7.77042C23.2236 8.08443 23.4 8.51032 23.4 8.9544V18.6056Z" fill="#263238"/>
<path id="Vector_2" d="M19.5 9.88H8.58003C7.86206 9.88 7.28003 10.462 7.28003 11.18C7.28003 11.898 7.86206 12.48 8.58003 12.48H19.5C20.218 12.48 20.8 11.898 20.8 11.18C20.8 10.462 20.218 9.88 19.5 9.88Z" fill="#263238"/>
</g>
</g>
</svg>
