<svg width="26" height="27" viewBox="0 0 26 27" fill="none" xmlns="http://www.w3.org/2000/svg">
<g id="Iconly/Bold/Home">
<g id="Home">
<path id="Vector" d="M9.68238 23.5797V20.0391C9.68238 19.1353 10.4204 18.4027 11.3308 18.4027H14.6588C15.096 18.4027 15.5153 18.5751 15.8244 18.882C16.1336 19.1889 16.3073 19.6051 16.3073 20.0391V23.5797C16.3045 23.9554 16.4529 24.3167 16.7196 24.5834C16.9863 24.85 17.3491 25 17.7276 25H19.9981C21.0585 25.0027 22.0764 24.5864 22.8272 23.843C23.578 23.0996 24 22.0902 24 21.0375V10.9511C24 10.1007 23.6203 9.29413 22.9632 8.74856L15.2394 2.62469C13.8958 1.55096 11.9708 1.58563 10.6673 2.70703L3.1197 8.74856C2.43159 9.27805 2.02032 10.087 2 10.9511V21.0272C2 23.2213 3.7917 25 6.00188 25H8.22055C9.00668 25 9.64558 24.3704 9.65127 23.5899L9.68238 23.5797Z" stroke="#263238" stroke-width="2.5"/>
</g>
</g>
</svg>
