<svg width="41" height="36" viewBox="0 0 41 36" fill="none" xmlns="http://www.w3.org/2000/svg">
<g id="Group 7">
<path id="Vector" d="M37.3421 36H3.39474C2.4944 36 1.63093 35.6353 0.994295 34.9861C0.357659 34.337 0 33.4565 0 32.5385V3.46154C0 2.54348 0.357659 1.66303 0.994295 1.01386C1.63093 0.364697 2.4944 0 3.39474 0H16.5867C17.487 0.000196053 18.3503 0.365021 18.9868 1.01423L22.0896 4.17808C22.726 4.82729 23.5894 5.19211 24.4896 5.19231H37.3421C38.2424 5.19231 39.1059 5.557 39.7425 6.20617C40.3792 6.85533 40.7368 7.73579 40.7368 8.65385V32.5385C40.7368 33.4565 40.3792 34.337 39.7425 34.9861C39.1059 35.6353 38.2424 36 37.3421 36Z" fill="#31A8FF"/>
<path id="Vector_2" d="M2 7H36.6875C37.3008 7 37.889 7.24583 38.3227 7.68342C38.7564 8.121 39 8.71449 39 9.33333V31.6667C39 32.2855 38.7564 32.879 38.3227 33.3166C37.889 33.7542 37.3008 34 36.6875 34H4.3125C3.69919 34 3.11099 33.7542 2.67732 33.3166C2.24364 32.879 2 32.2855 2 31.6667V7Z" fill="#001E36"/>
</g>
</svg>
