<svg width="41" height="36" viewBox="0 0 41 36" fill="none" xmlns="http://www.w3.org/2000/svg">
<g id="Group 6">
<path id="Vector" d="M37.3421 36H3.39474C2.4944 36 1.63093 35.6353 0.994295 34.9861C0.357659 34.337 0 33.4565 0 32.5385V3.46154C0 2.54348 0.357659 1.66303 0.994295 1.01386C1.63093 0.364697 2.4944 0 3.39474 0H16.5867C17.487 0.000196053 18.3503 0.365021 18.9868 1.01423L22.0896 4.17808C22.726 4.82729 23.5894 5.19211 24.4896 5.19231H37.3421C38.2424 5.19231 39.1059 5.557 39.7425 6.20617C40.3792 6.85533 40.7368 7.73579 40.7368 8.65385V32.5385C40.7368 33.4565 40.3792 34.337 39.7425 34.9861C39.1059 35.6353 38.2424 36 37.3421 36Z" fill="#FF61F6"/>
<path id="Vector_2" d="M2 7H36.6875C37.3008 7 37.889 7.24583 38.3227 7.68342C38.7564 8.121 39 8.71449 39 9.33333V31.6667C39 32.2855 38.7564 32.879 38.3227 33.3166C37.889 33.7542 37.3008 34 36.6875 34H4.3125C3.69919 34 3.11099 33.7542 2.67732 33.3166C2.24364 32.879 2 32.2855 2 31.6667V7Z" fill="#470137"/>
<g id="Group">
<path id="Vector_3" d="M21.2691 13.5789L17.5594 20.0211L21.5571 26.8783C21.6394 27.0171 21.6051 27.0857 21.4543 27.0857H18.9548C18.8923 27.0915 18.8296 27.0782 18.7748 27.0476C18.72 27.017 18.6758 26.9705 18.648 26.9143L15.8383 21.6994H15.8177L13.0765 26.9143C13.0521 26.9644 13.0145 27.0069 12.9676 27.0371C12.9208 27.0673 12.8665 27.0841 12.8108 27.0857H10.4108C10.2737 27.0857 10.2394 27.0171 10.3285 26.8783L14.2611 20.208L10.5154 13.5429C10.4348 13.4314 10.4623 13.3714 10.5977 13.3714H13.0971C13.1507 13.3676 13.2043 13.3793 13.2514 13.4051C13.2986 13.431 13.3372 13.4699 13.3628 13.5171L16.0011 18.6703H16.0217L18.648 13.5171C18.6737 13.47 18.7124 13.4312 18.7595 13.4054C18.8066 13.3796 18.8601 13.3678 18.9137 13.3714H21.1885C21.3377 13.3714 21.3651 13.4417 21.2691 13.5789Z" fill="#FF61F6"/>
<path id="Vector_4" d="M26.7652 27.4286C25.2875 27.4286 24.1509 27.0137 23.268 26.1823C22.3852 25.3509 21.9429 24.1251 21.9429 22.5051C21.9429 21.0309 22.4178 19.8189 23.3675 18.8691C23.8547 18.3692 24.4392 17.9743 25.0849 17.709C25.7306 17.4436 26.4238 17.3134 27.1218 17.3263C27.4344 17.3214 27.7464 17.3548 28.0509 17.4257V13.1469C28.0486 13.1308 28.0501 13.1144 28.0552 13.099C28.0604 13.0836 28.069 13.0696 28.0805 13.0582C28.092 13.0467 28.1059 13.038 28.1213 13.0329C28.1367 13.0278 28.1531 13.0263 28.1692 13.0286H30.4955C30.5623 13.0286 30.5949 13.068 30.5949 13.1469V25.116C30.5949 25.6166 30.8143 26.052 30.8538 26.4206C30.8597 26.456 30.8533 26.4925 30.8354 26.5237C30.8176 26.5549 30.7896 26.5791 30.756 26.592C29.6075 27.1526 28.1143 27.4286 26.7652 27.4286ZM28.0509 25.4709V19.3714C27.9686 19.2257 27.5366 19.1006 27.0806 19.1006C26.7113 19.0902 26.3442 19.1617 26.0057 19.3099C25.6673 19.458 25.3658 19.6793 25.1229 19.9577C24.5375 20.6391 24.2211 21.5109 24.2332 22.4091C24.2332 23.5166 24.6189 24.2726 25.1126 24.8006C25.3492 25.0678 25.6393 25.2822 25.9642 25.4299C26.2891 25.5776 26.6415 25.6552 26.9983 25.6577C27.4766 25.6594 27.9429 25.5891 28.0509 25.4709Z" fill="#FF61F6"/>
</g>
</g>
</svg>
