<svg xmlns="http://www.w3.org/2000/svg" width="20.807" height="24.479" viewBox="0 0 20.807 24.479">
  <g id="Iconly_Bold_Notification" data-name="Iconly/Bold/Notification" transform="translate(-3.5 -2)">
    <g id="Notification" transform="translate(3.5 2)">
      <path id="Path_16180" data-name="Path 16180" d="M11.828,20.911a4.249,4.249,0,0,1,1.752.435h.033a1.083,1.083,0,0,1,.175,1.5,3.772,3.772,0,0,1-2.836,1.6,4.51,4.51,0,0,1-3.285-.9,1.989,1.989,0,0,1-.854-1.425c0-.609.569-.892,1.095-1.012a9.131,9.131,0,0,1,1.872-.2h2.048ZM10.448,0c3.789,0,7.7,2.742,8.1,6.713.066.816,0,1.665.066,2.491a6.153,6.153,0,0,0,1.434,2.872,4.476,4.476,0,0,1,.756,2.252h0v.25a4.476,4.476,0,0,1-1.1,2.959,5.488,5.488,0,0,1-3.449,1.708,46.159,46.159,0,0,1-11.749,0,5.488,5.488,0,0,1-3.493-1.708A4.41,4.41,0,0,1,0,14.579v-.25a4.582,4.582,0,0,1,.734-2.252A6.274,6.274,0,0,0,2.192,9.2c.066-.827,0-1.665.066-2.491C2.674,2.742,6.506,0,10.339,0h.11Z" transform="translate(0 0)" fill="#30323a"/>
    </g>
  </g>
</svg>
