<svg width="34" height="34" viewBox="0 0 34 34" fill="none" xmlns="http://www.w3.org/2000/svg">
<path id="Vector" d="M17 0C7.61096 0 0 7.61096 0 17C0 26.389 7.61096 34 17 34C26.389 34 34 26.389 34 17C34 7.61096 26.389 0 17 0ZM25.8246 23.0116C25.8246 23.3033 25.5894 23.5385 25.2977 23.5385H23.0775C22.7858 23.5385 22.5506 23.3033 22.5506 23.0116V16.1721C22.5506 16.1157 22.4848 16.0874 22.4377 16.1251L17.7338 20.829C17.3293 21.2335 16.6613 21.2335 16.2568 20.829L11.5529 16.1251C11.5152 16.0874 11.44 16.1157 11.44 16.1721V23.0116C11.44 23.3033 11.2048 23.5385 10.9131 23.5385H8.69286C8.40122 23.5385 8.16602 23.3033 8.16602 23.0116V10.9884C8.16602 10.6967 8.40122 10.4615 8.69286 10.4615H10.2169C10.4898 10.4615 10.7626 10.5744 10.9602 10.772L16.8118 16.6237C16.9153 16.7272 17.0753 16.7272 17.1788 16.6237L23.0304 10.772C23.228 10.5744 23.4914 10.4615 23.7737 10.4615H25.2977C25.5894 10.4615 25.8246 10.6967 25.8246 10.9884V23.0116Z" fill="#FF3D2D"/>
</svg>
