<svg width="57" height="50" viewBox="0 0 57 50" fill="none" xmlns="http://www.w3.org/2000/svg">
<g id="Group 12">
<path id="Vector" d="M51.7675 49.907H4.70614C3.45799 49.907 2.26097 49.4014 1.3784 48.5015C0.495824 47.6015 0 46.3809 0 45.1082V4.79875C0 3.52604 0.495824 2.30546 1.3784 1.40552C2.26097 0.505581 3.45799 0 4.70614 0H22.9942C24.2422 0.000271789 25.4391 0.506031 26.3214 1.40603L30.6229 5.79209C31.5052 6.69209 32.702 7.19785 33.9501 7.19812H51.7675C53.0157 7.19812 54.2127 7.7037 55.0953 8.60364C55.9779 9.50358 56.4737 10.7242 56.4737 11.9969V45.1082C56.4737 46.3809 55.9779 47.6015 55.0953 48.5015C54.2127 49.4014 53.0157 49.907 51.7675 49.907Z" fill="#B0B0B0"/>
<path id="Vector_2" d="M2.47363 9.95349H51.2236C52.0856 9.95349 52.9122 10.2904 53.5217 10.89C54.1312 11.4897 54.4736 12.303 54.4736 13.151V43.756C54.4736 44.604 54.1312 45.4173 53.5217 46.017C52.9122 46.6166 52.0856 46.9535 51.2236 46.9535H5.72363C4.86168 46.9535 4.03503 46.6166 3.42554 46.017C2.81604 45.4173 2.47363 44.604 2.47363 43.756V9.95349Z" fill="#EAEAEA"/>
</g>
</svg>
