<svg width="24" height="25" viewBox="0 0 24 25" fill="none" xmlns="http://www.w3.org/2000/svg">
<g id="Iconly/Bold/Setting">
<g id="Setting">
<path id="Vector" d="M12.8031 2.00041C13.3848 1.98983 13.9358 2.20031 14.3473 2.60327C14.7608 2.99354 14.9819 3.534 14.9819 4.10512C14.9819 5.26853 15.9443 6.2109 17.1405 6.2109C17.5096 6.2109 17.8798 6.10407 18.2087 5.92427C19.2336 5.37324 20.5133 5.72332 21.095 6.70693L21.8153 7.94438C21.9951 8.26167 22.0998 8.62127 22.0998 8.99144C22.0998 9.74237 21.6884 10.4415 21.0221 10.8106C20.6931 10.9904 20.4181 11.2654 20.2288 11.5837C19.6672 12.5769 20.0173 13.8344 21.0221 14.4076C22.0363 14.9883 22.3854 16.2585 21.8153 17.2622L21.095 18.4584C20.7143 19.1131 20.0057 19.5161 19.2442 19.5161C18.8634 19.5161 18.4827 19.4198 18.1664 19.2294C17.8269 19.0496 17.4578 18.9439 17.0866 18.9439C16.5154 18.9439 15.9655 19.167 15.5646 19.5679C15.1511 19.9603 14.929 20.4986 14.929 21.0592C14.929 22.212 13.9676 23.1533 12.7714 23.1533H11.3235C10.7513 23.1533 10.2119 22.9206 9.82055 22.5293C9.41864 22.1274 9.20817 21.5986 9.20817 21.0486C9.20817 19.8852 8.25523 18.9439 7.06115 18.9439C6.66876 18.9439 6.28801 19.0496 5.96014 19.2517C5.46305 19.5256 4.87077 19.5996 4.32079 19.4621C3.77082 19.3141 3.29488 18.9545 3.00931 18.4785L2.33348 17.2834C2.01513 16.7873 1.91994 16.194 2.06907 15.6335C2.21608 15.0729 2.59789 14.597 3.11508 14.3114C3.444 14.1316 3.71793 13.8672 3.90831 13.5393C4.45934 12.5451 4.10926 11.2971 3.11508 10.7154C2.11031 10.1443 1.76129 8.88568 2.33348 7.89149L3.00931 6.70693C3.29488 6.2109 3.77082 5.85024 4.33137 5.70217C4.89298 5.5541 5.4842 5.63765 5.9813 5.92427C6.31974 6.10407 6.68992 6.19926 7.06115 6.19926C7.63228 6.19926 8.1812 5.97716 8.5831 5.58583C8.98501 5.1945 9.20817 4.6551 9.20817 4.10512C9.20817 2.94171 10.1696 2.00041 11.3647 2.00041H12.8031ZM13.2272 9.91265C12.1167 9.45681 10.8359 9.70007 9.97919 10.5356C9.13308 11.3606 8.86867 12.6192 9.33403 13.699C9.78987 14.7873 10.8676 15.496 12.0733 15.496H12.085C12.8782 15.5065 13.6186 15.2009 14.178 14.6498C14.7386 14.1104 15.0559 13.3701 15.0559 12.598C15.0665 11.424 14.3367 10.3558 13.2272 9.91265Z" stroke="#263238" stroke-width="2.5"/>
</g>
</g>
</svg>
