<svg width="22" height="17" viewBox="0 0 22 17" fill="none" xmlns="http://www.w3.org/2000/svg">
<path id="XMLID_348_" d="M18.0494 6.40436C17.7634 2.82586 14.7109 0 11 0C7.82571 0 5.10086 2.02764 4.22086 4.98486C1.71364 5.84105 0 8.17777 0 10.8182C0 14.2267 2.81993 17 6.28571 17H16.5C19.5321 17 22 14.5729 22 11.5909C22 9.15759 20.3736 7.06891 18.0494 6.40436ZM14.3731 12.1372L12.8016 10.5918C12.5769 10.3708 12.5094 10.0385 12.6311 9.7495C12.7521 9.46127 13.0397 9.27273 13.3571 9.27273H14.0313C13.6801 7.94364 12.4606 6.95455 11 6.95455C10.5616 6.95455 10.1381 7.04109 9.74129 7.21186C9.34214 7.38186 8.88014 7.20414 8.7065 6.81391C8.53207 6.42291 8.71357 5.967 9.11114 5.79623C9.7075 5.53968 10.3439 5.40909 11 5.40909C13.3312 5.40909 15.2672 7.08359 15.6436 9.27273H16.5C16.8174 9.27273 17.105 9.46127 17.226 9.7495C17.3478 10.0385 17.2802 10.3708 17.0555 10.5918L15.4841 12.1372C15.3309 12.2879 15.1297 12.3636 14.9286 12.3636C14.7274 12.3636 14.5263 12.2879 14.3731 12.1372ZM4.9445 9.49914L6.51593 7.95368C6.82314 7.65155 7.31971 7.65155 7.62693 7.95368L9.19836 9.49914C9.42307 9.72014 9.49064 10.0524 9.36886 10.3414C9.24786 10.6304 8.96029 10.8182 8.64286 10.8182H7.96871C8.31993 12.148 9.53936 13.1364 11 13.1364C11.4369 13.1364 11.8596 13.0498 12.2564 12.8798C12.6531 12.7067 13.1167 12.8883 13.2904 13.2785C13.4648 13.6695 13.2825 14.1255 12.8849 14.2955C12.2894 14.552 11.6545 14.6818 11 14.6818C8.66879 14.6818 6.73279 13.0073 6.35643 10.8182H5.5C5.18257 10.8182 4.895 10.6304 4.774 10.3414C4.65221 10.0524 4.71979 9.72014 4.9445 9.49914Z" fill="#B0B0B0"/>
</svg>
